<?xml version="1.0" encoding="UTF-8" standalone="no"?>
<!DOCTYPE svg PUBLIC "-//W3C//DTD SVG 1.0//EN"
"http://www.w3.org/TR/2001/REC-SVG-20010904/DTD/svg10.dtd">
<!-- Created with Inkscape (http://www.inkscape.org/) -->
<!-- (C) Copyright 2004 Callum McKenzie -->
<svg
   xmlns:dc="http://purl.org/dc/elements/1.1/"
   xmlns:cc="http://web.resource.org/cc/"
   xmlns:rdf="http://www.w3.org/1999/02/22-rdf-syntax-ns#"
   xmlns:svg="http://www.w3.org/2000/svg"
   xmlns="http://www.w3.org/2000/svg"
   xmlns:xlink="http://www.w3.org/1999/xlink"
   xmlns:sodipodi="http://inkscape.sourceforge.net/DTD/sodipodi-0.dtd"
   xmlns:inkscape="http://www.inkscape.org/namespaces/inkscape"
   sodipodi:docbase="/home/rozane/Desktop/gnibbles"
   sodipodi:docname="diamond.svg"
   height="100.00000mm"
   width="100.00000mm"
   inkscape:version="0.41"
   sodipodi:version="0.32"
   id="svg840">
  <metadata
     id="metadata17">
    <rdf:RDF
       id="RDF19">
      <cc:Work
         id="Work21"
         rdf:about="">
        <dc:format
           id="format23">image/svg+xml</dc:format>
        <dc:type
           rdf:resource="http://purl.org/dc/dcmitype/StillImage"
           id="type25" />
      </cc:Work>
    </rdf:RDF>
  </metadata>
  <defs
     id="defs842">
    <linearGradient
       id="linearGradient1097">
      <stop
         id="stop1098"
         offset="0.0000000"
         style="stop-color:#ff0000;stop-opacity:1.0000000;" />
      <stop
         id="stop1099"
         offset="1.0000000"
         style="stop-color:#ffffff;stop-opacity:1.0000000;" />
    </linearGradient>
    <linearGradient
       id="linearGradient845">
      <stop
         id="stop846"
         offset="0.0000000"
         style="stop-color:#ff0000;stop-opacity:1.0000000;" />
      <stop
         id="stop847"
         offset="1.0000000"
         style="stop-color:#ffffff;stop-opacity:1.0000000;" />
    </linearGradient>
    <linearGradient
       y2="0.50322574"
       x2="1.1089743"
       y1="0.50000000"
       x1="0.0000000"
       id="linearGradient848"
       xlink:href="#linearGradient845" />
    <radialGradient
       fy="0.50000000"
       fx="0.50000000"
       r="0.40625000"
       cy="0.50000000"
       cx="0.50000000"
       id="radialGradient1096"
       xlink:href="#linearGradient1097" />
  </defs>
  <sodipodi:namedview
     inkscape:current-layer="svg840"
     inkscape:window-y="25"
     inkscape:window-x="0"
     snaptogrid="true"
     showgrid="false"
     inkscape:window-height="694"
     inkscape:window-width="1022"
     inkscape:cy="178.97532"
     inkscape:cx="177.16536"
     inkscape:zoom="1.4619111"
     inkscape:pageshadow="2"
     inkscape:pageopacity="0.0"
     borderopacity="1.0"
     bordercolor="#666666"
     pagecolor="#ffffff"
     id="base" />
  <path
     id="path8178"
     d="M 158.65529,21.584185 C 106.26902,27.897432 54.447332,53.677308 24.059842,97.824993 C -8.4188188,146.93622 -4.9224002,217.78121 35.186576,261.61677 C 67.776030,300.36923 118.06820,320.60802 167.77723,324.09220 C 231.05273,327.61267 297.66208,298.74912 331.88342,244.12864 C 360.09089,198.80180 359.67846,135.92000 326.33352,93.294435 C 291.92253,44.895453 231.30114,19.212015 172.71140,21.169209 C 168.01081,20.926830 163.34175,21.234624 158.65529,21.584185 z M 176.66336,135.14664 C 198.42485,134.85221 222.87640,145.27336 230.46449,167.11496 C 233.56703,187.88809 214.20704,204.72711 195.06685,207.54038 C 170.40117,214.04136 140.01364,206.85983 125.71616,184.53419 C 117.74135,166.29965 132.04914,145.26079 150.23151,140.62718 C 158.55816,136.99143 167.66915,135.76027 176.66336,135.14664 z "
     style="fill:#000000;fill-opacity:0.22519083;stroke:none;stroke-width:12.500000;stroke-linecap:round;stroke-linejoin:round;stroke-miterlimit:4.0000000;stroke-opacity:1.0000000" />
  <path
     id="path7402"
     d="M 158.51554,26.593107 C 112.71291,31.704469 67.488812,51.929925 37.547750,87.707201 C 0.36009909,131.17705 -2.7620620,200.96435 33.234374,246.13116 C 61.061663,284.32193 106.83666,306.55551 153.06386,312.30837 C 213.26209,319.71840 278.09171,296.77027 315.76751,248.21597 C 342.14602,212.43896 351.09268,162.54069 332.69314,121.23478 C 310.12432,68.750180 256.04609,34.258440 200.25101,28.033457 C 186.42193,26.276426 172.43407,26.227558 158.51554,26.593107 z M 177.28856,124.05985 C 201.82587,124.59192 228.83355,137.22583 236.85865,161.95650 C 241.65761,184.86034 222.39984,205.99743 201.13638,211.28762 C 172.73337,221.08964 137.39022,214.40514 118.41967,189.97260 C 106.50448,172.18249 114.39309,146.17427 132.85375,136.22298 C 145.78676,127.37298 161.84883,124.26669 177.28856,124.05985 z "
     style="stroke-opacity:1.0000000;stroke-miterlimit:4.0000000;stroke-linejoin:round;stroke-linecap:round;stroke-width:12.500000;stroke:none;fill-opacity:0.18823530;fill:#000000" />
  <g
     id="g1309"
     transform="translate(-4.104217,-4.788253)">
    <path
       id="path1306"
       d="M 176.46875,39.000000 C 90.001108,39.000000 19.843750,98.659259 19.843750,172.18750 C 19.843750,245.71575 90.001113,305.40624 176.46875,305.40625 C 262.93639,305.40625 333.12500,245.71575 333.12500,172.18750 C 333.12500,98.659252 262.93640,38.999998 176.46875,39.000000 z M 176.46875,119.03125 C 215.09252,119.03125 246.43750,142.83708 246.43750,172.18750 C 246.43750,201.53792 215.09252,225.37500 176.46875,225.37500 C 137.84498,225.37501 106.50000,201.53792 106.50000,172.18750 C 106.50000,142.83708 137.84498,119.03125 176.46875,119.03125 z "
       style="fill:#d89433;fill-opacity:1.0000000;stroke:none;stroke-width:12.500000;stroke-linecap:round;stroke-linejoin:round;stroke-miterlimit:4.0000000;stroke-opacity:1.0000000" />
    <path
       sodipodi:nodetypes="ccccccccscsscs"
       id="path3590"
       d="M 285.34375,76.593750 C 302.81443,98.078079 316.54518,122.05520 316.54518,150.13539 C 316.54518,223.66364 242.93639,285.40625 156.46875,285.40625 C 114.19375,285.40625 75.872151,271.08374 47.687500,247.90625 C 75.965717,282.62124 123.08354,305.40624 176.46875,305.40625 C 262.93639,305.40625 333.12500,245.71575 333.12500,172.18750 C 333.12500,134.65103 314.75570,100.80915 285.34375,76.593750 z M 167.41333,104.50353 C 128.87170,101.98589 95.660942,125.01108 90.604217,156.29172 C 84.005995,197.10798 129.45928,216.18044 141.80616,218.91190 C 107.48649,201.46317 106.50000,179.74473 106.50000,172.18750 C 106.50000,142.83708 137.84498,119.03125 176.46875,119.03125 C 193.19684,119.03125 211.67589,123.04379 229.96689,137.63260 C 220.53426,124.33074 198.82828,106.55564 167.41333,104.50353 z "
       style="fill:#9b6c00;fill-opacity:0.57251906;stroke:none;stroke-width:12.500000;stroke-linecap:round;stroke-linejoin:round;stroke-miterlimit:4.0000000;stroke-opacity:1.0000000" />
    <path
       sodipodi:nodetypes="ccccccccsccccc"
       id="path2069"
       d="M 184.46875,49.000000 C 98.001108,49.000000 29.843750,106.65926 29.843750,180.18750 C 29.843750,216.09999 48.645306,240.65698 75.843750,264.62500 C 55.847700,242.25315 47.843750,220.43463 47.843750,190.18750 C 47.843750,124.86769 108.00111,67.000000 194.46875,67.000000 C 238.80744,66.999999 272.77206,78.768930 301.28125,103.96875 C 272.66986,71.847861 235.47580,48.999999 184.46875,49.000000 z M 251.62500,156.37500 C 255.86074,164.70348 255.29056,172.87158 254.43750,182.18750 C 251.87038,210.22179 221.09252,235.37500 182.46875,235.37500 C 163.30927,235.37500 154.00430,234.12643 139.31250,226.00000 C 154.00212,240.94750 168.17265,247.37501 194.46875,247.37500 C 233.09252,247.37500 266.43750,221.53792 266.43750,192.18750 C 266.43750,177.39648 264.46577,166.01267 251.62500,156.37500 z "
       style="fill:#ffd533;fill-opacity:0.67557251;stroke:none;stroke-width:12.500000;stroke-linecap:round;stroke-linejoin:round;stroke-miterlimit:4.0000000;stroke-opacity:1.0000000" />
    <path
       id="path5115"
       d="M 73.872734,189.04436 C 66.020798,189.35823 55.831411,197.73389 56.942791,201.28952 C 63.553109,201.74476 78.944958,195.80518 89.379464,197.60412 C 102.75009,198.43569 111.58715,215.54757 101.77323,225.80824 C 96.262667,228.47006 91.833099,242.03913 90.343196,239.54861 C 98.194313,241.54954 112.42185,233.91404 118.98866,224.66660 C 130.78072,214.79183 150.31769,223.58970 149.85107,239.31067 C 146.88913,247.74570 154.17501,261.40558 155.09981,259.60540 C 154.56150,254.96529 165.15728,239.65911 169.76020,231.93676 C 177.68477,222.55695 191.63153,227.09529 198.47358,235.35613 C 204.08988,241.68248 213.35701,256.13858 212.25316,258.98463 C 208.54140,259.94242 215.16946,247.25136 213.49456,241.87774 C 215.01625,231.00183 220.99082,217.12756 234.21627,218.23358 C 247.24930,218.86763 252.81091,234.97035 264.56322,237.60404 C 253.72391,246.81295 267.29248,224.75379 259.95984,219.07529 C 253.38986,208.76111 243.75333,194.99425 253.12081,183.25932 C 265.63269,168.25174 288.61132,171.90116 303.48057,181.04323 C 291.98255,188.15738 301.30795,173.24673 293.14315,169.73159 C 280.69727,162.80771 257.81368,162.72969 257.70351,142.85684 C 258.05903,129.93521 270.44853,122.70142 276.64845,112.65500 C 279.23519,120.67352 273.52185,108.51570 270.00191,113.09534 C 255.01917,112.38157 240.96827,122.60946 225.75312,118.54457 C 207.42642,113.55109 213.07519,92.211486 215.24918,78.680149 C 213.68480,70.910069 217.09978,72.328554 216.45567,75.766339 C 212.56614,73.687236 203.33759,76.208470 211.62933,72.594021 C 208.60438,84.644722 199.96664,94.880264 190.65874,102.83760 C 178.72608,113.33059 158.51802,108.64270 157.03886,91.312472 C 154.16920,85.479877 145.96717,74.184334 146.57411,72.205427 C 148.86510,76.357956 141.73198,92.396881 142.86529,101.62376 C 141.06429,117.21401 119.72916,124.17059 109.08046,112.67556 C 103.49374,108.14226 91.430313,91.675880 90.207052,107.50939 C 94.183116,119.24337 101.72705,136.66676 86.476903,144.39498 C 76.500649,150.07763 64.926548,148.81269 54.108804,147.29791 C 49.644803,146.11328 36.959008,149.62166 45.246243,145.55346 C 45.440061,141.02551 38.410577,129.59606 47.567655,136.75439 C 57.595531,145.47224 71.093333,148.62092 79.732344,159.29062 C 89.677208,167.23298 84.670695,190.84904 72.764169,187.22439 C 70.022953,181.82830 67.281736,176.43221 64.540520,171.03612 C 67.253449,169.13594 61.889343,178.92065 61.137958,172.64064 C 53.171988,163.15791 37.132562,163.39086 32.012812,151.03679 C 25.858652,136.95119 41.341176,120.84088 55.681665,124.67697 C 60.802956,126.36617 75.729613,126.32923 75.011699,125.46413 C 71.707111,130.66913 65.550422,109.67688 64.847839,103.90956 C 63.020494,91.255873 69.663975,75.024380 84.336601,74.818362 C 97.528943,70.877193 109.49889,80.194843 117.28688,89.860740 C 120.85601,94.688246 127.15279,95.602698 120.78813,98.166947 C 122.60414,82.933116 123.17511,64.783457 134.97505,53.565676 C 147.91503,45.088191 164.53694,55.889127 169.94850,68.487018 C 171.62567,73.441542 182.72729,89.333887 178.36257,88.248276 C 166.63979,86.269242 185.78559,82.424430 185.99702,74.813902 C 192.35740,66.355388 196.20062,51.030716 209.43522,52.410776 C 221.73668,51.427757 237.52248,57.813619 237.61608,72.140822 C 238.70979,81.329742 235.71498,92.356642 234.50220,100.06520 C 225.17940,93.490609 240.25674,99.139421 245.42558,94.674924 C 257.91914,90.805875 271.88043,88.396128 284.47889,92.965238 C 297.96214,98.850127 303.55302,115.72348 293.70393,127.44034 C 290.62733,133.85947 276.18096,144.99369 280.73959,141.48382 C 293.67987,144.84933 308.26481,148.25235 314.97219,161.22372 C 322.35241,172.62132 321.59754,189.97214 311.81226,199.80515 C 301.48437,208.94932 290.17065,197.02732 279.53811,195.61362 C 275.00120,196.97971 268.04553,194.23580 272.27305,195.60788 C 277.59626,206.09632 285.68341,216.35624 284.09947,228.91771 C 284.44118,241.27852 280.61608,258.70293 265.71907,260.05478 C 250.93241,261.13740 240.56394,248.62470 230.55452,239.74589 C 236.48614,241.92780 239.73382,234.15211 236.21293,242.85443 C 235.13767,255.37720 233.78496,270.57473 221.94249,278.02588 C 209.97082,285.46302 195.78205,274.81620 190.29203,264.09346 C 190.80990,255.97942 171.93196,246.36106 185.31368,247.67326 C 190.15349,244.58675 177.74506,258.85925 177.10606,263.60633 C 173.40446,277.10763 158.69848,285.60079 145.47121,279.60768 C 130.91087,273.75288 125.88128,255.79847 127.91279,241.45700 C 139.28271,240.81885 119.32635,255.12614 113.53236,257.74562 C 99.779651,263.67758 78.959403,264.24057 70.574779,249.51681 C 66.587452,236.03979 73.178057,221.76896 83.379739,212.92978 C 85.557842,219.65343 87.680973,220.68289 79.560676,219.75707 C 66.513488,225.37395 48.358060,225.46038 38.548504,213.77987 C 30.712600,200.31623 36.926408,180.93587 50.945797,174.06497 C 57.157338,170.39267 71.014791,166.04457 74.562528,166.45547 C 68.005675,169.08958 81.175638,184.09281 73.872734,189.04436 z "
       style="fill:#ffff8d;fill-opacity:1.0000000;fill-rule:nonzero;stroke:none;stroke-width:1.0000000px;stroke-linecap:butt;stroke-linejoin:miter;stroke-opacity:1.0000000" />
    <path
       id="path5876"
       d="M 145.12500,50.562500 C 141.66246,50.545217 138.20374,51.443128 134.96875,53.562500 C 124.28458,63.719563 122.81334,79.474575 121.28125,93.687500 C 120.01780,92.713332 118.54262,91.581099 117.28125,89.875000 C 109.49326,80.209100 97.536089,70.871334 84.343750,74.812500 C 69.671125,75.018518 63.016405,91.252559 64.843750,103.90625 C 65.430188,108.72016 69.800331,123.96606 73.156250,125.90625 C 69.198259,126.24121 59.627731,125.98714 55.687500,124.68750 C 41.347011,120.85141 25.845838,136.94565 32.000000,151.03125 C 33.327478,154.23448 35.410362,156.56917 37.875000,158.46875 C 32.356416,144.51890 47.534679,128.90161 61.687500,132.68750 C 65.627731,133.98714 75.198259,134.24121 79.156250,133.90625 C 75.800331,131.96606 71.430188,116.72016 70.843750,111.90625 C 69.016405,99.252559 75.671125,83.018518 90.343750,82.812500 C 103.53609,78.871334 115.49326,88.209100 123.28125,97.875000 C 124.54262,99.581099 126.01780,100.71333 127.28125,101.68750 C 128.81334,87.474575 130.28458,71.719563 140.96875,61.562500 C 150.25793,55.476791 161.39398,59.401943 168.96875,66.718750 C 164.43671,58.027763 154.84493,50.611017 145.12500,50.562500 z M 214.18750,52.375000 C 212.57839,52.266482 210.97518,52.283373 209.43750,52.406250 C 196.20290,51.026190 192.36038,66.353984 186.00000,74.812500 C 185.90783,78.130260 182.25659,80.643655 179.09375,82.687500 C 180.83879,85.786515 182.53554,88.930569 183.81250,91.593750 C 187.15623,89.440389 191.89519,86.585123 192.00000,82.812500 C 198.36038,74.353984 202.20290,59.026190 215.43750,60.406250 C 222.55992,59.837093 230.76353,61.830020 236.50000,66.312500 C 233.34785,57.617049 223.53476,53.005377 214.18750,52.375000 z M 152.56250,80.218750 C 153.04486,81.093050 153.06306,82.558876 152.87500,84.312500 C 154.41224,86.798370 156.11818,89.456676 157.03125,91.312500 C 157.54205,97.297178 160.38430,101.66641 164.25000,104.53125 C 163.66590,102.92880 163.19465,101.22693 163.03125,99.312500 C 160.16159,93.479911 151.95556,82.197657 152.56250,80.218750 z M 216.93750,82.812500 C 216.03501,85.690432 214.74107,88.409819 213.28125,91.062500 C 212.05826,100.75955 212.29124,110.87089 220.15625,116.06250 C 217.09735,107.32150 219.84906,95.407255 221.25000,86.687500 C 220.94590,85.177075 220.96293,84.274912 220.96875,83.406250 C 219.59845,83.052561 218.24825,82.847401 216.93750,82.812500 z M 264.90625,90.656250 C 258.27942,91.171179 251.68428,92.752980 245.43750,94.687500 C 244.70082,95.323798 243.72740,95.678650 242.68750,95.968750 C 242.16447,99.073501 241.63176,101.86603 241.12500,104.59375 C 244.37361,104.64326 248.98792,104.80329 251.43750,102.68750 C 263.93106,98.818461 277.87029,96.399640 290.46875,100.96875 C 292.76844,101.97247 294.75944,103.37457 296.56250,104.93750 C 294.23208,99.832587 290.09133,95.422774 284.46875,92.968750 C 278.16952,90.684195 271.53308,90.141321 264.90625,90.656250 z M 277.40625,120.09375 C 276.91821,120.21526 276.43999,120.52129 276.00000,121.09375 C 273.87333,120.99244 271.78262,121.13884 269.68750,121.40625 C 263.95970,127.71158 257.96454,133.91006 257.71875,142.84375 C 257.75693,149.73127 260.62344,154.16507 264.75000,157.40625 C 264.09531,155.49537 263.73246,153.31606 263.71875,150.84375 C 264.05627,138.57585 275.09468,131.38236 281.53125,122.09375 C 280.37990,121.01015 278.83769,119.73737 277.40625,120.09375 z M 291.90625,144.65625 C 287.76260,148.60762 284.14269,151.47622 286.75000,149.46875 C 296.76024,152.07221 307.71062,154.75215 315.28125,161.81250 C 315.16464,161.62251 315.08974,161.40560 314.96875,161.21875 C 310.16810,151.93480 301.28645,147.63155 291.90625,144.65625 z M 71.937500,156.37500 C 76.102626,158.78995 80.120660,161.44830 83.562500,164.96875 C 82.694371,162.76059 81.517514,160.71781 79.718750,159.28125 C 78.886304,158.25313 77.977722,157.36892 77.062500,156.46875 C 75.361608,156.54854 73.651475,156.44785 71.937500,156.37500 z M 54.500000,172.37500 C 53.256566,172.94881 51.887486,173.50086 50.937500,174.06250 C 36.918111,180.93340 30.726596,200.31760 38.562500,213.78125 C 39.839440,215.30174 41.251144,216.61454 42.781250,217.75000 C 38.070985,204.70234 44.257721,188.27686 56.937500,182.06250 C 58.962037,180.86558 61.847691,179.65233 64.875000,178.50000 C 61.876484,175.89670 58.212373,174.09007 54.500000,172.37500 z M 277.40625,173.09375 C 268.23895,172.91458 259.38094,175.74621 253.12500,183.25000 C 243.75752,194.98493 253.39877,208.74832 259.96875,219.06250 C 264.21701,222.35241 261.50320,231.04211 260.53125,236.06250 C 251.34933,231.25002 245.66962,218.77583 234.21875,218.21875 C 220.99330,217.11273 215.02170,230.99908 213.50000,241.87500 C 214.40480,244.77790 212.97101,249.69404 211.96875,253.56250 C 214.36215,257.23730 216.46696,260.86411 217.53125,263.53125 C 218.35305,259.60490 220.58212,253.34680 219.50000,249.87500 C 221.02170,238.99908 226.99330,225.11273 240.21875,226.21875 C 251.66962,226.77583 257.34933,239.25002 266.53125,244.06250 C 267.50320,239.04211 270.21701,230.35241 265.96875,227.06250 C 259.39877,216.74832 249.75752,202.98493 259.12500,191.25000 C 269.91426,178.30863 288.46227,179.29223 302.90625,185.65625 C 302.80946,182.63316 302.58948,179.19684 299.15625,177.71875 C 298.44060,177.32062 297.59086,177.01418 296.81250,176.65625 C 296.83285,176.99697 296.89560,177.32360 296.90625,177.65625 C 290.83732,174.98228 284.04927,173.22358 277.40625,173.09375 z M 85.250000,197.25000 C 81.571014,197.22266 77.579755,197.88895 73.687500,198.62500 C 67.587077,201.28940 62.106889,206.62388 62.937500,209.28125 C 69.547818,209.73649 84.940498,203.79481 95.375000,205.59375 C 98.842572,205.80941 101.98227,207.15409 104.59375,209.15625 C 102.14095,203.04260 96.436473,198.03293 89.375000,197.59375 C 88.070687,197.36888 86.682396,197.26064 85.250000,197.25000 z M 128.84375,220.56250 C 125.36119,220.88070 121.94801,222.18756 119.00000,224.65625 C 115.60788,229.43306 110.17056,233.75194 104.62500,236.56250 C 101.32943,240.47863 98.660529,246.66063 97.156250,247.65625 C 105.13598,249.01175 118.64076,241.61139 125.00000,232.65625 C 132.10631,226.70537 141.96626,227.61597 148.62500,232.65625 C 145.62544,224.71979 137.14834,219.80372 128.84375,220.56250 z M 180.53125,226.71875 C 176.55803,226.85936 172.72172,228.42007 169.75000,231.93750 C 165.93123,238.34428 158.06958,249.88728 155.78125,256.31250 C 157.08227,262.85312 160.46718,268.81341 161.09375,267.59375 C 160.55544,262.95363 171.14708,247.65985 175.75000,239.93750 C 183.67458,230.55768 197.62670,235.08291 204.46875,243.34375 C 204.51843,243.39971 204.57476,243.50528 204.62500,243.56250 C 202.48997,240.43090 200.31294,237.42110 198.46875,235.34375 C 194.19247,230.18072 187.15328,226.48440 180.53125,226.71875 z M 82.187500,228.96875 C 78.674890,230.15438 74.933279,230.95063 71.125000,231.25000 C 69.222632,237.11728 68.750799,243.40776 70.562500,249.53125 C 72.057824,252.15710 74.043007,254.13405 76.218750,255.84375 C 74.051390,246.44942 76.768325,236.79648 82.187500,228.96875 z M 133.53125,255.96875 C 132.24887,257.14547 130.68988,258.29021 129.12500,259.46875 C 130.72938,265.29493 133.61966,270.62616 137.90625,274.62500 C 134.99092,268.95646 133.57262,262.37359 133.53125,255.96875 z M 189.71875,261.25000 C 190.09381,262.20419 190.34082,263.16044 190.28125,264.09375 C 191.76040,266.98273 193.90895,269.84924 196.43750,272.37500 C 196.38904,272.28287 196.32843,272.18590 196.28125,272.09375 C 196.51961,268.35922 192.66151,264.40949 189.71875,261.25000 z "
       style="fill:#ffffff;fill-opacity:0.59160304;fill-rule:nonzero;stroke:none;stroke-width:1.0000000px;stroke-linecap:butt;stroke-linejoin:miter;stroke-opacity:1.0000000" />
    <path
       id="path6639"
       d="M 151.90625,51.843750 C 145.19132,53.025965 138.72000,54.684068 132.37500,56.562500 C 126.57816,63.681519 124.23275,72.820565 122.84375,82.125000 C 130.38304,78.638776 138.42041,75.748601 146.84375,73.406250 C 146.76992,72.990145 146.72772,72.518224 146.56250,72.218750 C 146.50418,72.408911 146.84569,73.025894 146.93750,73.375000 C 154.32902,71.324415 162.06082,69.816103 170.06250,68.750000 C 170.04020,68.688729 169.95723,68.558289 169.93750,68.500000 C 166.77190,61.130620 159.76298,54.484065 151.90625,51.843750 z M 214.18750,52.375000 C 212.57839,52.266482 210.97518,52.283373 209.43750,52.406250 C 199.68820,51.389626 195.03589,59.465453 190.71875,67.156250 C 191.98132,67.131283 193.19465,67.000000 194.46875,67.000000 C 210.05961,67.000000 224.29193,68.548667 237.53125,71.531250 C 237.03587,59.429327 225.25138,53.121146 214.18750,52.375000 z M 92.812500,74.093750 C 82.436241,80.499887 72.986929,87.860729 64.843750,96.250000 C 64.559283,98.843835 64.487469,101.43914 64.843750,103.90625 C 65.307479,107.71288 68.141282,118.02610 70.968750,123.18750 C 81.977623,108.62355 96.659191,96.134161 114.18750,86.593750 C 108.40012,80.358281 101.10777,74.928186 92.812500,74.093750 z M 50.281250,124.12500 C 47.833229,124.26348 45.513900,125.05383 43.281250,126.09375 C 38.848915,134.57954 35.354942,143.52627 33.093750,152.90625 C 36.872992,159.49208 44.025796,162.20861 50.781250,165.46875 C 54.134876,151.39138 60.413540,138.09278 69.031250,126.00000 C 64.457591,125.99055 58.599343,125.64794 55.687500,124.68750 C 53.894939,124.20799 52.065010,124.02410 50.281250,124.12500 z M 264.62500,175.15625 C 260.84319,176.57095 257.42072,178.89539 254.43750,182.03125 C 254.43264,182.08451 254.44238,182.13416 254.43750,182.18750 C 253.93040,187.72532 252.30175,193.13995 249.75000,198.28125 C 251.03109,204.73240 254.86848,211.01200 258.43750,216.59375 C 263.49584,209.13503 266.43750,200.82309 266.43750,192.18750 C 266.43750,185.93081 266.00406,180.31934 264.62500,175.15625 z M 49.000000,175.31250 C 36.431432,182.98132 31.116611,200.98773 38.562500,213.78125 C 42.077277,217.96639 46.679961,220.58051 51.718750,222.03125 C 49.086799,212.32475 47.843750,201.90019 47.843750,190.18750 C 47.843750,185.17292 48.306229,180.21643 49.000000,175.31250 z M 234.21875,218.21875 C 233.85014,218.18792 233.54491,218.28919 233.18750,218.28125 C 228.77168,221.80916 223.78656,224.90820 218.34375,227.46875 C 215.74745,231.86478 214.16458,237.12512 213.50000,241.87500 C 213.78543,242.79075 213.79207,243.95050 213.68750,245.18750 C 227.73305,241.98785 240.25783,235.45261 249.56250,226.87500 C 245.16628,222.55247 240.58985,218.52870 234.21875,218.21875 z M 139.31250,226.00000 C 142.60840,229.35376 145.89479,232.23042 149.28125,234.75000 C 148.85914,232.96003 148.16326,231.31972 147.25000,229.81250 C 144.69738,228.71353 142.15863,227.57427 139.31250,226.00000 z M 197.25000,234.09375 C 192.48084,234.91583 187.55677,235.37500 182.46875,235.37500 C 176.88057,235.37500 172.25846,235.19585 167.96875,234.84375 C 166.53671,237.14921 164.93144,239.73890 163.21875,242.50000 C 171.73904,245.79678 181.65075,247.37500 194.46875,247.37500 C 198.57478,247.37500 202.60951,247.02592 206.56250,246.46875 C 203.91129,242.30932 200.88506,238.06555 198.46875,235.34375 C 198.10352,234.90278 197.65372,234.51195 197.25000,234.09375 z "
       style="fill:#ffffff;fill-opacity:0.53053433;stroke:none;stroke-width:12.500000;stroke-linecap:round;stroke-linejoin:round;stroke-miterlimit:4.0000000;stroke-opacity:1.0000000" />
  </g>
</svg>
