<?xml version="1.0" encoding="UTF-8" standalone="no"?>
<!DOCTYPE svg PUBLIC "-//W3C//DTD SVG 1.0//EN"
"http://www.w3.org/TR/2001/REC-SVG-20010904/DTD/svg10.dtd">
<!-- Created with Inkscape (http://www.inkscape.org/) -->
<!-- (C) Copyright 2004 Theo van Klaveren -->
<!--
Redistribution and use in source and binary forms, with or without
modification, are permitted provided that the following conditions are
met:

1. Redistributions of source code must retain the above copyright
   notice, this list of conditions and the following disclaimer.
2. Redistributions in binary form must reproduce the above copyright
   notice, this list of conditions and the following disclaimer in the
   documentation and/or other materials provided with the distribution.

THIS SOFTWARE IS PROVIDED BY THEO VAN KLAVEREN ``AS IS'' AND ANY
EXPRESS OR IMPLIED WARRANTIES, INCLUDING, BUT NOT LIMITED TO, THE
IMPLIED WARRANTIES OF MERCHANTABILITY AND FITNESS FOR A PARTICULAR
PURPOSE ARE DISCLAIMED. IN NO EVENT SHALL THEO VAN KLAVEREN OR
CONTRIBUTORS BE LIABLE FOR ANY DIRECT, INDIRECT, INCIDENTAL, SPECIAL,
EXEMPLARY, OR CONSEQUENTIAL DAMAGES (INCLUDING, BUT NOT LIMITED TO,
PROCUREMENT OF SUBSTITUTE GOODS OR SERVICES; LOSS OF USE, DATA, OR
PROFITS; OR BUSINESS INTERRUPTION) HOWEVER CAUSED AND ON ANY THEORY OF
LIABILITY, WHETHER IN CONTRACT, STRICT LIABILITY, OR TORT (INCLUDING
NEGLIGENCE OR OTHERWISE) ARISING IN ANY WAY OUT OF THE USE OF THIS
SOFTWARE, EVEN IF ADVISED OF THE POSSIBILITY OF SUCH DAMAGE.
-->
<svg
   xmlns:dc="http://purl.org/dc/elements/1.1/"
   xmlns:cc="http://web.resource.org/cc/"
   xmlns:rdf="http://www.w3.org/1999/02/22-rdf-syntax-ns#"
   xmlns:svg="http://www.w3.org/2000/svg"
   xmlns="http://www.w3.org/2000/svg"
   xmlns:sodipodi="http://inkscape.sourceforge.net/DTD/sodipodi-0.dtd"
   xmlns:inkscape="http://www.inkscape.org/namespaces/inkscape"
   sodipodi:docname="bonus2.svg"
   sodipodi:docbase="/home/rozane/Desktop/gnibbles"
   height="100.00000mm"
   width="100.00000mm"
   inkscape:version="0.41"
   sodipodi:version="0.32"
   id="svg836">
  <metadata
     id="metadata10">
    <rdf:RDF
       id="RDF12">
      <cc:Work
         id="Work14"
         rdf:about="">
        <dc:format
           id="format16">image/svg+xml</dc:format>
        <dc:type
           rdf:resource="http://purl.org/dc/dcmitype/StillImage"
           id="type18" />
      </cc:Work>
    </rdf:RDF>
  </metadata>
  <defs
     id="defs838" />
  <sodipodi:namedview
     inkscape:current-layer="svg836"
     inkscape:window-y="25"
     inkscape:window-x="0"
     snaptogrid="true"
     showgrid="false"
     inkscape:window-height="694"
     inkscape:window-width="1022"
     inkscape:cy="177.16536"
     inkscape:cx="177.16536"
     inkscape:zoom="1.4619111"
     inkscape:pageshadow="2"
     inkscape:pageopacity="0.0"
     borderopacity="1.0"
     bordercolor="#666666"
     pagecolor="#ffffff"
     id="base" />
  <path
     id="path3623"
     d="M 173.59029,141.51732 C 151.84897,144.49460 128.31540,151.23564 114.27779,169.23607 C 110.27760,175.65815 108.99467,183.85496 111.55904,191.04857 C 101.77346,199.10544 94.455013,212.99756 100.70621,225.35728 C 102.94857,230.34565 108.32636,234.10248 106.54832,240.01598 C 108.17174,254.41973 114.09629,267.97841 117.73579,281.97120 C 124.96661,304.28747 132.39078,327.45725 146.76529,346.24232 C 161.04379,358.81641 183.72771,352.28362 194.83559,338.59177 C 220.56022,311.45987 242.59203,280.94636 262.41684,249.32091 C 268.83134,236.65754 276.97252,224.72059 288.11841,215.79551 C 297.96658,207.31979 297.37772,192.69565 292.33341,181.76400 C 289.57524,167.72033 278.36895,157.41052 265.62933,151.99507 C 240.48056,140.59064 211.96275,138.55811 184.71626,140.51580 C 181.00760,140.84964 177.29895,141.18348 173.59029,141.51732 z "
     style="stroke-opacity:1.0000000;stroke-miterlimit:4.0000000;stroke-linejoin:round;stroke-linecap:round;stroke-width:12.500000;stroke:none;fill-opacity:0.24809159;fill:#000000" />
  <path
     id="path2842"
     d="M 199.55557,156.32918 C 155.83485,156.32918 120.36807,171.13285 120.36807,189.37793 C 120.36807,193.34359 122.13890,197.12781 125.21182,200.65192 C 125.15007,200.89971 125.13536,201.15081 125.08682,201.40019 C 114.76337,206.98238 108.55557,213.96224 108.55557,221.55369 C 108.55557,227.90014 112.92808,233.80274 120.36807,238.83881 C 114.43005,242.86710 116.81196,249.49051 118.30557,254.07864 C 127.23946,285.28644 135.12858,317.04572 153.36807,345.96663 C 158.00593,351.20492 171.79890,350.84894 177.27432,344.81927 C 193.76713,332.41781 202.98607,317.29849 214.61807,303.24021 C 230.01380,283.31442 244.48419,262.98509 255.99307,242.33075 C 255.84596,241.10929 255.18120,240.19352 254.30557,239.41248 C 261.17066,234.97033 265.56714,229.80699 266.64932,224.24747 C 276.97277,218.66528 283.18057,211.68543 283.18057,204.09398 C 283.18057,200.12529 281.41423,196.34636 278.33682,192.81999 C 278.61606,191.69193 278.77432,190.53662 278.77432,189.37793 C 278.77432,171.13286 243.27629,156.32918 199.55557,156.32918 z "
     style="fill:#000000;fill-opacity:0.14503814;stroke:none;stroke-width:12.500000;stroke-linecap:round;stroke-linejoin:round;stroke-miterlimit:4.0000000;stroke-opacity:1.0000000" />
  <path
     sodipodi:nodetypes="cczc"
     id="rect1305"
     d="M 105.34157,185.37379 C 146.83976,201.10662 183.54970,201.79066 225.73193,185.37379 C 211.13916,242.37680 176.02530,342.01807 165.53675,342.01807 C 155.73223,342.01807 119.25030,237.58855 105.34157,185.37379 z "
     style="stroke-opacity:1.0000000;stroke-miterlimit:4.0000000;stroke-linejoin:round;stroke-linecap:round;stroke-width:12.500000;stroke:none;fill-opacity:1.0000000;fill:#ffbf6e" />
  <path
     sodipodi:nodetypes="cczcssc"
     id="path2066"
     d="M 105.34157,185.37379 C 146.83976,201.10662 183.54970,201.79066 225.73193,185.37379 C 211.13916,242.37680 176.02530,342.01807 165.53675,342.01807 C 160.63449,342.01807 149.06288,315.91069 136.97824,283.27647 C 159.66544,323.39234 166.77782,329.90693 167.54610,284.20633 C 168.27449,240.87886 202.91369,220.33287 179.54880,216.73658 C 152.11778,212.51444 129.48234,209.17255 105.34157,185.37379 z "
     style="stroke-opacity:1.0000000;stroke-miterlimit:4.0000000;stroke-linejoin:round;stroke-linecap:round;stroke-width:12.500000;stroke:none;fill-opacity:0.35114503;fill:#dc5400" />
  <path
     sodipodi:nodetypes="cssssscsssssccc"
     id="path1299"
     d="M 218.89156,177.84940 C 218.89156,187.85548 216.86134,197.39026 213.19063,206.06401 C 209.51992,214.73776 204.41240,225.71448 197.29550,224.75169 C 189.93701,223.75622 190.77212,234.01138 186.91447,235.26794 C 183.05683,236.52451 178.93521,234.71903 174.59834,236.55438 C 170.26146,238.38974 165.70933,247.91688 160.99066,248.88327 C 156.27198,249.84967 151.38677,239.55467 146.38373,239.55467 C 141.38069,239.55467 136.49548,269.42928 131.77680,266.43741 C 127.05813,263.44554 122.50600,232.98846 118.16912,231.15311 C 113.83225,229.31775 109.71063,230.44807 105.85299,231.21699 C 101.99534,231.98590 98.043574,241.71039 95.998850,236.93863 C 88.207474,218.75595 83.247538,214.73776 79.576828,206.06401 C 75.906119,197.39026 73.875900,187.85548 73.875900,177.84940 C 73.875900,137.82507 106.35941,105.34157 146.38373,105.34157 C 186.40805,105.34157 218.89156,137.82507 218.89156,177.84940 z "
     style="fill:#ff6888;fill-opacity:1.0000000;stroke:none;stroke-width:12.500000;stroke-linecap:round;stroke-linejoin:round;stroke-miterlimit:4.0000000;stroke-opacity:1.0000000"
     transform="matrix(1.000000,0.000000,0.000000,0.740566,19.15301,23.90900)" />
  <path
     sodipodi:nodetypes="cssscsssccc"
     id="path1301"
     d="M 218.89156,177.84940 C 218.89156,187.85548 216.86134,197.39026 213.19063,206.06401 C 209.51992,214.73775 204.20872,222.55047 197.64677,229.11243 C 191.08481,235.67439 190.11245,231.74891 181.43870,235.41962 C 172.76495,239.09033 159.80999,243.89155 149.80391,243.89155 C 139.79783,243.89155 126.84287,243.70867 118.16912,240.03796 C 109.49537,236.36725 95.526328,230.13239 86.912261,230.95976 C 78.767389,231.74207 83.247538,214.73775 79.576828,206.06401 C 75.906119,197.39026 73.875900,187.85548 73.875900,177.84940 C 73.875900,137.82507 106.35941,105.34157 146.38373,105.34157 C 186.40805,105.34157 218.89156,137.82507 218.89156,177.84940 z "
     style="fill:#ffe8db;fill-opacity:1.0000000;stroke:none;stroke-width:12.500000;stroke-linecap:round;stroke-linejoin:round;stroke-miterlimit:4.0000000;stroke-opacity:1.0000000"
     transform="matrix(1.000000,0.000000,0.000000,0.740566,33.51777,-21.23739)" />
  <path
     sodipodi:nodetypes="cssssscsssssccc"
     id="path1303"
     d="M 218.89156,177.84940 C 218.89156,187.85548 216.86134,197.39026 213.19063,206.06401 C 209.51992,214.73776 216.52137,226.24514 209.95942,232.80710 C 206.67844,236.08808 194.87634,235.36170 191.01869,237.96858 C 187.16105,240.57546 185.77558,253.90494 181.43870,255.74030 C 177.10183,257.57565 167.68420,234.45122 163.04277,235.95194 C 151.48372,239.68934 158.22714,260.51756 147.06777,260.51756 C 142.06473,260.51756 136.10746,249.34625 132.46084,245.18860 C 124.32199,235.90921 116.34967,252.03365 112.01280,250.19830 C 107.67592,248.36294 108.34256,240.57546 103.11684,237.96858 C 97.891127,235.36170 91.561313,235.16441 88.280334,231.88343 C 81.718375,225.32147 83.247538,214.73776 79.576828,206.06401 C 75.906119,197.39026 73.875900,187.85548 73.875900,177.84940 C 73.875900,137.82507 106.35941,105.34157 146.38373,105.34157 C 186.40805,105.34157 218.89156,137.82507 218.89156,177.84940 z "
     style="fill:#a16300;fill-opacity:1.0000000;stroke:none;stroke-width:12.500000;stroke-linecap:round;stroke-linejoin:round;stroke-miterlimit:4.0000000;stroke-opacity:1.0000000"
     transform="matrix(1.000000,0.000000,0.000000,0.740566,30.09759,-66.38377)" />
  <path
     sodipodi:nodetypes="cssssscsssssssssc"
     id="path2829"
     d="M 218.89156,177.84940 C 218.89156,187.85548 216.86134,197.39026 213.19063,206.06401 C 209.51992,214.73776 204.41240,225.71448 197.29550,224.75169 C 189.93701,223.75622 190.77212,234.01138 186.91447,235.26794 C 183.05683,236.52451 178.93521,234.71903 174.59834,236.55438 C 170.26146,238.38974 165.70933,247.91688 160.99066,248.88327 C 156.27198,249.84967 151.38677,239.55467 146.38373,239.55467 C 141.38069,239.55467 136.49548,269.42928 131.77680,266.43741 C 127.05813,263.44554 122.50600,232.98846 118.16912,231.15311 C 113.83225,229.31775 109.71063,230.44807 105.85299,231.21699 C 101.99534,231.98590 98.043574,241.71039 95.998850,236.93863 C 88.207474,218.75595 83.247538,214.73776 79.576828,206.06401 C 75.906119,197.39026 93.014149,221.91720 99.869273,220.33807 C 110.80647,217.81860 119.14667,217.91906 127.33732,235.39834 C 130.64313,242.45311 131.96493,240.75879 134.09467,229.04926 C 136.27727,217.04917 156.51297,231.46510 160.74849,229.11290 C 179.24627,218.84013 206.57891,212.64207 218.89156,177.84940 z "
     style="fill:#ea3869;fill-opacity:1.0000000;stroke:none;stroke-width:12.500000;stroke-linecap:round;stroke-linejoin:round;stroke-miterlimit:4.0000000;stroke-opacity:1.0000000"
     transform="matrix(1.000000,0.000000,0.000000,0.740566,19.15301,23.90900)" />
  <path
     transform="matrix(1.057143,0.000000,0.000000,1.000000,-9.400611,-2.736145)"
     d="M 128.59879 156.98630 A 11.970633 14.706777 0 1 1  104.65753,156.98630 A 11.970633 14.706777 0 1 1  128.59879 156.98630 z"
     sodipodi:ry="14.706777"
     sodipodi:rx="11.970633"
     sodipodi:cy="156.98630"
     sodipodi:cx="116.62816"
     id="path2837"
     style="stroke-opacity:1.0000000;stroke-miterlimit:4.0000000;stroke-linejoin:round;stroke-linecap:round;stroke-width:12.500000;stroke:none;fill-opacity:0.72519082;fill:#ffa49f"
     sodipodi:type="arc" />
  <path
     sodipodi:nodetypes="cssssscsssssscsc"
     id="path2832"
     d="M 218.89156,177.84940 C 218.89156,187.85548 216.86134,197.39026 213.19063,206.06401 C 209.51992,214.73775 204.20872,222.55047 197.64677,229.11243 C 194.36579,232.39341 192.82423,234.66895 191.01869,236.58308 C 189.21316,238.49721 185.98816,247.88418 182.12273,244.65629 C 174.36568,238.17864 173.91777,246.76230 167.14698,248.42144 C 160.37620,250.08059 152.75484,245.73889 147.75180,245.73889 C 136.59243,243.89156 139.23162,257.93174 127.67259,254.88711 C 122.79136,253.60140 122.50599,241.87331 118.16912,240.03796 C 113.83224,238.20260 102.87027,242.19188 96.960516,241.20141 C 91.050765,240.21095 94.981493,230.54607 86.912261,230.95976 C 78.752689,231.37808 83.247538,214.73775 79.576828,206.06401 C 75.906119,197.39026 93.975859,224.04849 106.70963,224.03273 C 115.29257,224.02211 119.82107,230.01394 130.18213,237.02654 C 139.67208,230.97664 155.41673,233.20937 173.74518,225.41824 C 195.67336,216.09692 209.31505,203.40540 218.89156,177.84940 z "
     style="stroke-opacity:1.0000000;stroke-miterlimit:4.0000000;stroke-linejoin:round;stroke-linecap:round;stroke-width:12.500000;stroke:none;fill-opacity:1.0000000;fill:#f7c1b0"
     transform="matrix(1.000000,0.000000,0.000000,0.740566,33.51777,-21.23739)" />
  <path
     sodipodi:nodetypes="cssssscsssssssscc"
     id="path2835"
     d="M 218.89156,177.84940 C 218.89156,187.85548 216.86134,197.39026 213.19063,206.06401 C 209.51992,214.73776 216.52137,226.24514 209.95942,232.80710 C 206.67844,236.08808 194.87634,235.36170 191.01869,237.96858 C 187.16105,240.57546 185.77558,253.90494 181.43870,255.74030 C 177.10183,257.57565 167.68420,234.45122 163.04277,235.95194 C 151.48372,239.68934 158.22714,260.51756 147.06777,260.51756 C 142.06473,260.51756 136.10746,249.34625 132.46084,245.18860 C 124.32199,235.90921 116.34967,252.03365 112.01280,250.19830 C 107.67592,248.36294 108.34256,240.57546 103.11684,237.96858 C 97.891127,235.36170 91.561313,235.16441 88.280334,231.88343 C 81.718375,225.32147 83.247538,214.73776 79.576828,206.06401 C 75.906119,197.39026 105.74203,230.48156 112.86596,227.72740 C 139.54338,217.41374 139.02676,241.64954 144.71332,231.07615 C 149.97082,221.30053 158.52127,215.25791 178.53343,215.25791 C 198.54559,215.25791 208.46411,163.34045 197.64676,126.58636 C 210.77068,139.71028 218.89156,157.83724 218.89156,177.84940 z "
     style="fill:#824900;fill-opacity:1.0000000;stroke:none;stroke-width:12.500000;stroke-linecap:round;stroke-linejoin:round;stroke-miterlimit:4.0000000;stroke-opacity:1.0000000"
     transform="matrix(1.000000,0.000000,0.000000,0.740566,30.09759,-66.38377)" />
  <path
     sodipodi:nodetypes="cssss"
     id="path2839"
     d="M 160.06445,41.042167 C 151.85601,50.082388 135.60745,50.283063 132.01897,64.299395 C 128.77229,76.980691 118.33824,69.235400 118.33824,56.774998 C 118.33824,44.314595 131.72894,28.045480 145.69969,28.045480 C 159.67045,28.045480 168.44066,31.817163 160.06445,41.042167 z "
     style="stroke-opacity:1.0000000;stroke-miterlimit:4.0000000;stroke-linejoin:round;stroke-linecap:round;stroke-width:12.500000;stroke:none;fill-opacity:1.0000000;fill:#b17e4e" />
</svg>
