<?xml version="1.0" encoding="UTF-8" standalone="no"?>
<!-- Created with Inkscape (http://www.inkscape.org/) -->

<svg
   xmlns:dc="http://purl.org/dc/elements/1.1/"
   xmlns:cc="http://creativecommons.org/ns#"
   xmlns:rdf="http://www.w3.org/1999/02/22-rdf-syntax-ns#"
   xmlns:svg="http://www.w3.org/2000/svg"
   xmlns="http://www.w3.org/2000/svg"
   xmlns:sodipodi="http://sodipodi.sourceforge.net/DTD/sodipodi-0.dtd"
   xmlns:inkscape="http://www.inkscape.org/namespaces/inkscape"
   width="17"
   height="16"
   viewBox="0 0 17 16"
   id="svg4707"
   version="1.1"
   inkscape:version="0.91 r13725"
   sodipodi:docname="questionmark.svg">
  <defs
     id="defs4709" />
  <sodipodi:namedview
     id="base"
     pagecolor="#ffffff"
     bordercolor="#666666"
     borderopacity="1.0"
     inkscape:pageopacity="0.0"
     inkscape:pageshadow="2"
     inkscape:zoom="11.313708"
     inkscape:cx="19.305774"
     inkscape:cy="7.4392603"
     inkscape:document-units="px"
     inkscape:current-layer="question-mark"
     showgrid="false"
     units="px"
     inkscape:showpageshadow="false"
     inkscape:window-width="1366"
     inkscape:window-height="704"
     inkscape:window-x="0"
     inkscape:window-y="27"
     inkscape:window-maximized="1" />
  <metadata
     id="metadata4712">
    <rdf:RDF>
      <cc:Work
         rdf:about="">
        <dc:format>image/svg+xml</dc:format>
        <dc:type
           rdf:resource="http://purl.org/dc/dcmitype/StillImage" />
        <dc:title></dc:title>
      </cc:Work>
    </rdf:RDF>
  </metadata>
  <g
     inkscape:label="Layer 1"
     inkscape:groupmode="layer"
     id="layer1"
     transform="translate(0,-1036.3622)">
    <g
       id="question-mark"
       inkscape:label="#g4153">
      <path
         sodipodi:nodetypes="sccsccccscscsccssssss"
         inkscape:connector-curvature="0"
         id="rect4150"
         d="m 8.6657195,1036.9844 c -2.4875504,0.1394 -4.3990246,2.0561 -4.2596854,4.5436 l 3.0291095,0 c -0.04786,-0.853 0.5668373,-1.4659 1.4198953,-1.5144 0.8530577,-0.051 1.5613551,0.5668 1.6092151,1.4198 l 0,0.047 c 0.006,0.1966 -0.04771,0.4928 -0.189319,0.6626 -0.3433045,0.4115 -0.7322127,0.7507 -1.0412576,0.9939 -0.3444853,0.2591 -0.7182624,0.577 -1.0885861,1.0414 -0.370324,0.4644 -0.7099477,1.1321 -0.7099477,1.8931 -0.010604,0.8002 0.7143095,1.5146 1.5145549,1.5146 0.8002449,0 1.5251565,-0.7144 1.5145555,-1.5146 0,0 -0.02749,0.046 0.04732,-0.047 0.07482,-0.095 0.278783,-0.256 0.567959,-0.4735 1.841758,-1.3963 2.413669,-2.1843 2.413819,-4.307 -0.139338,-2.4873 -2.34009,-4.3988 -4.8276413,-4.2596 z m 0.283979,12.1165 c -0.8364584,0 -1.5145549,0.678 -1.5145549,1.5146 0,0.8364 0.6780965,1.5145 1.5145549,1.5145 0.8364582,0 1.5145555,-0.6781 1.5145555,-1.5145 0,-0.8366 -0.6780973,-1.5146 -1.5145555,-1.5146 z"
         style="color:#000000;clip-rule:nonzero;display:inline;overflow:visible;visibility:visible;opacity:1;isolation:auto;mix-blend-mode:normal;color-interpolation:sRGB;color-interpolation-filters:linearRGB;solid-color:#000000;solid-opacity:1;fill:#ad7fa8;fill-opacity:1;fill-rule:nonzero;stroke:#1c5288;stroke-width:0;stroke-linecap:round;stroke-linejoin:miter;stroke-miterlimit:4;stroke-dasharray:none;stroke-dashoffset:0;stroke-opacity:0.76999996;marker:none;color-rendering:auto;image-rendering:auto;shape-rendering:auto;text-rendering:auto;enable-background:accumulate" />
      <rect
         inkscape:label="a"
         y="1036.3622"
         x="0"
         height="16"
         width="16"
         id="rect8319"
         style="color:#bebebe;display:inline;overflow:visible;visibility:visible;fill:none;fill-opacity:1;stroke:none;stroke-width:1;marker:none" />
    </g>
  </g>
</svg>
