<?xml version="1.0" encoding="UTF-8" standalone="no"?>
<svg
   xmlns:dc="http://purl.org/dc/elements/1.1/"
   xmlns:cc="http://creativecommons.org/ns#"
   xmlns:rdf="http://www.w3.org/1999/02/22-rdf-syntax-ns#"
   xmlns:svg="http://www.w3.org/2000/svg"
   xmlns="http://www.w3.org/2000/svg"
   xmlns:xlink="http://www.w3.org/1999/xlink"
   version="1.1"
   height="10.000000cm"
   width="10.000000cm"
   id="svg1">
  <metadata
     id="metadata13">
    <rdf:RDF>
      <cc:Work
         rdf:about="">
        <dc:format>image/svg+xml</dc:format>
        <dc:type
           rdf:resource="http://purl.org/dc/dcmitype/StillImage" />
        <dc:title></dc:title>
      </cc:Work>
    </rdf:RDF>
  </metadata>
  <defs
     id="defs3">
    <linearGradient
       id="linearGradient3634">
      <stop
         id="stop3636"
         offset="0"
         style="stop-color:#00b600;stop-opacity:1;" />
      <stop
         id="stop3638"
         offset="1.0000000"
         style="stop-color:#008900;stop-opacity:1.0000000;" />
    </linearGradient>
    <linearGradient
       id="linearGradient2068">
      <stop
         id="stop2070"
         offset="0.0000000"
         style="stop-color:#ff4853;stop-opacity:1.0000000;" />
      <stop
         id="stop2072"
         offset="1.0000000"
         style="stop-color:#aa002e;stop-opacity:1.0000000;" />
    </linearGradient>
    <linearGradient
       id="linearGradient589">
      <stop
         id="stop590"
         offset="0.00000000"
         style="stop-color:#ffcdcd;stop-opacity:1;" />
      <stop
         id="stop591"
         offset="1.00000000"
         style="stop-color:#ff0000;stop-opacity:1;" />
    </linearGradient>
    <linearGradient
       id="linearGradient592"
       xlink:href="#linearGradient589" />
    <radialGradient
       gradientUnits="userSpaceOnUse"
       fy="242.36936"
       fx="250.17006"
       r="72.911689"
       cy="243.64851"
       cx="248.89091"
       id="radialGradient593"
       xlink:href="#linearGradient589" />
    <radialGradient
       gradientUnits="userSpaceOnUse"
       r="72.911689"
       fy="242.36936"
       fx="250.17006"
       cy="243.64851"
       cx="248.89091"
       id="radialGradient1308"
       xlink:href="#linearGradient589" />
  </defs>
  <path
     style="display:inline;fill:#888a85;fill-opacity:1;stroke:none"
     id="path10457"
     d="m 112.65502,28.358413 c -56.479104,0 -79.508364,37.86135 -79.508364,81.210837 0,105.16266 81.236544,209.56268 110.175824,209.56268 28.93922,0 71.55765,-72.12637 71.55765,-72.12637 14.16794,34.57077 47.90132,72.12637 69.85467,72.12637 27.87069,0 39.18539,-10.94542 39.18539,-28.39668 0,-17.44861 -42.50747,-18.54386 -49.40797,-44.29669 -6.90032,-25.75285 -22.59676,-89.73007 -51.68138,-89.73007 -29.08267,0 -62.47072,52.81417 -62.47072,52.81417 0,-39.68354 18.74204,-52.73927 18.74204,-98.81719 0,-46.075707 -9.96626,-82.347057 -66.44714,-82.347057 z m -34.074964,54.52003 c 7.02942,0 13.33922,3.83116 18.17333,9.65368 4.834114,-5.82252 11.145544,-9.65368 18.173334,-9.65368 15.05648,0 27.26002,16.273615 27.26002,36.346687 0,20.07308 -12.20354,36.3467 -27.26002,36.3467 -7.02779,0 -13.33922,-3.83116 -18.173334,-9.65588 -4.83411,5.82472 -11.14391,9.65588 -18.17333,9.65588 -15.0548,0 -27.26002,-16.27362 -27.26002,-36.3467 0,-20.073072 12.20522,-36.346687 27.26002,-36.346687 z" />
  <path
     id="path4645"
     d="m 72.155396,154.16885 c -9.0787,-3.24428 -16.00495,-11.77447 -19.04858,-23.45976 -1.47652,-5.66874 -1.45257,-17.21517 0.0477,-23.00496 2.63143,-10.154997 9.29839,-19.169938 16.66106,-22.528751 5.27765,-2.407641 12.84561,-2.255093 17.81754,0.359151 2.06443,1.085476 4.90303,3.171 6.308,4.6345 l 2.5545,2.660903 3.675094,-3.30422 c 4.88612,-4.393032 10.91761,-6.66666 16.26441,-6.13102 12.45646,1.247882 22.05746,12.43497 24.73545,28.821737 1.07309,6.56632 1.07254,7.8443 -0.006,14.18471 -2.09322,12.30373 -8.21149,21.9646 -16.73223,26.42034 -3.07629,1.60868 -4.8024,1.97404 -9.39863,1.98939 -4.81185,0.0161 -6.19341,-0.29332 -9.5045,-2.12839 -2.13083,-1.18096 -4.97037,-3.27811 -6.310094,-4.66034 l -2.43584,-2.51315 -3.98539,3.64243 c -6.10057,5.57557 -13.82594,7.45332 -20.64249,5.01743 z"
     style="fill:#000000" />
</svg>
