<?xml version="1.0" encoding="UTF-8" standalone="no"?>
<!DOCTYPE svg PUBLIC "-//W3C//DTD SVG 1.0//EN"
"http://www.w3.org/TR/2001/REC-SVG-20010904/DTD/svg10.dtd">
<!-- Created with Inkscape (http://www.inkscape.org/) -->
<!-- (C) Copyright 2004 Theo van Klaveren -->
<!--
Redistribution and use in source and binary forms, with or without
modification, are permitted provided that the following conditions are
met:

1. Redistributions of source code must retain the above copyright
   notice, this list of conditions and the following disclaimer.
2. Redistributions in binary form must reproduce the above copyright
   notice, this list of conditions and the following disclaimer in the
   documentation and/or other materials provided with the distribution.

THIS SOFTWARE IS PROVIDED BY THEO VAN KLAVEREN ``AS IS'' AND ANY
EXPRESS OR IMPLIED WARRANTIES, INCLUDING, BUT NOT LIMITED TO, THE
IMPLIED WARRANTIES OF MERCHANTABILITY AND FITNESS FOR A PARTICULAR
PURPOSE ARE DISCLAIMED. IN NO EVENT SHALL THEO VAN KLAVEREN OR
CONTRIBUTORS BE LIABLE FOR ANY DIRECT, INDIRECT, INCIDENTAL, SPECIAL,
EXEMPLARY, OR CONSEQUENTIAL DAMAGES (INCLUDING, BUT NOT LIMITED TO,
PROCUREMENT OF SUBSTITUTE GOODS OR SERVICES; LOSS OF USE, DATA, OR
PROFITS; OR BUSINESS INTERRUPTION) HOWEVER CAUSED AND ON ANY THEORY OF
LIABILITY, WHETHER IN CONTRACT, STRICT LIABILITY, OR TORT (INCLUDING
NEGLIGENCE OR OTHERWISE) ARISING IN ANY WAY OUT OF THE USE OF THIS
SOFTWARE, EVEN IF ADVISED OF THE POSSIBILITY OF SUCH DAMAGE.
-->
<svg
   xmlns:dc="http://purl.org/dc/elements/1.1/"
   xmlns:cc="http://web.resource.org/cc/"
   xmlns:rdf="http://www.w3.org/1999/02/22-rdf-syntax-ns#"
   xmlns:svg="http://www.w3.org/2000/svg"
   xmlns="http://www.w3.org/2000/svg"
   xmlns:xlink="http://www.w3.org/1999/xlink"
   xmlns:sodipodi="http://inkscape.sourceforge.net/DTD/sodipodi-0.dtd"
   xmlns:inkscape="http://www.inkscape.org/namespaces/inkscape"
   sodipodi:docname="bonus5.svg"
   sodipodi:docbase="/home/aurium/Desktop/gnibbles"
   height="10.000000cm"
   width="10.000000cm"
   inkscape:version="0.42"
   sodipodi:version="0.32"
   id="svg831">
  <metadata
     id="metadata8">
    <rdf:RDF>
      <cc:Work
         rdf:about="">
        <dc:format>image/svg+xml</dc:format>
        <dc:type
           rdf:resource="http://purl.org/dc/dcmitype/StillImage" />
      </cc:Work>
    </rdf:RDF>
  </metadata>
  <defs
     id="defs833">
    <linearGradient
       id="linearGradient7187">
      <stop
         style="stop-color:#ffffcf;stop-opacity:1.0000000;"
         offset="0.0000000"
         id="stop7189" />
      <stop
         style="stop-color:#ffffd0;stop-opacity:0.0000000;"
         offset="1.0000000"
         id="stop7191" />
    </linearGradient>
    <linearGradient
       id="linearGradient3666">
      <stop
         id="stop3668"
         offset="0.0000000"
         style="stop-color:#ffd900;stop-opacity:1.0000000;" />
      <stop
         id="stop3670"
         offset="1.0000000"
         style="stop-color:#ffbf00;stop-opacity:1.0000000;" />
    </linearGradient>
    <linearGradient
       id="linearGradient3658">
      <stop
         id="stop3660"
         offset="0.0000000"
         style="stop-color:#d09000;stop-opacity:1.0000000;" />
      <stop
         id="stop3662"
         offset="1.0000000"
         style="stop-color:#a06000;stop-opacity:1.0000000;" />
    </linearGradient>
    <linearGradient
       inkscape:collect="always"
       xlink:href="#linearGradient7187"
       id="linearGradient7193"
       x1="56.192657"
       y1="161.73439"
       x2="53.280643"
       y2="234.58276"
       gradientUnits="userSpaceOnUse" />
    <linearGradient
       inkscape:collect="always"
       xlink:href="#linearGradient7187"
       id="linearGradient7969"
       gradientUnits="userSpaceOnUse"
       x1="56.192657"
       y1="161.73439"
       x2="53.280643"
       y2="234.58276" />
  </defs>
  <sodipodi:namedview
     inkscape:guide-bbox="true"
     showguides="true"
     inkscape:current-layer="svg831"
     inkscape:window-y="33"
     inkscape:window-x="35"
     snaptogrid="true"
     showgrid="false"
     inkscape:window-height="679"
     inkscape:window-width="989"
     inkscape:cy="179.53087"
     inkscape:cx="269.83192"
     inkscape:zoom="1.4082888"
     inkscape:pageshadow="2"
     inkscape:pageopacity="0.0"
     borderopacity="1.0"
     bordercolor="#666666"
     pagecolor="#ffffff"
     id="base" />
  <g
     id="g7955"
     transform="matrix(1.060166,0.000000,0.000000,1.060166,-17.55186,-23.62109)">
    <path
       sodipodi:nodetypes="csssssss"
       id="path7195"
       d="M 25.063180,251.12204 C 13.305978,257.62594 30.241004,267.76079 40.176053,273.93187 C 50.749549,280.49951 93.292447,297.69818 99.800888,300.24997 C 109.74890,304.15034 122.51929,306.33788 141.62289,297.85843 C 149.58805,294.32295 336.38525,206.90802 347.10440,197.74251 C 357.18504,189.12297 344.19502,175.53660 333.27778,172.21594 C 305.59643,163.79620 276.69915,144.55849 247.49794,144.72435 C 217.13262,144.89682 97.752171,210.91162 25.063180,251.12204 z "
       style="fill:#000000;fill-opacity:0.30084744;stroke:none;stroke-width:1.0000000;stroke-linecap:round;stroke-linejoin:round;stroke-miterlimit:4.0000000;stroke-opacity:1.0000000" />
    <path
       style="fill:#000000;fill-opacity:0.19915254;stroke:none;stroke-width:1.0000000;stroke-linecap:round;stroke-linejoin:round;stroke-miterlimit:4.0000000;stroke-opacity:1.0000000"
       d="M 26.440282,248.58422 C 14.963512,254.93299 31.494605,264.82611 41.192684,270.85000 C 51.513982,277.26098 93.042151,294.04943 99.395353,296.54036 C 109.10608,300.34770 121.57188,302.48306 140.21982,294.20587 C 147.99499,290.75471 330.33672,205.42479 340.80021,196.47790 C 350.64040,188.06395 337.96022,174.80165 327.30337,171.56019 C 300.28228,163.34128 272.07425,144.56242 243.56954,144.72433 C 213.92850,144.89268 97.395502,209.33290 26.440282,248.58422 z "
       id="path7953"
       sodipodi:nodetypes="csssssss" />
    <path
       id="rect1317"
       d="M 134.68939,307.88226 L 368.22630,307.88226 L 368.22630,352.34461 L 134.68939,352.34461 L 134.68939,307.88226 z "
       style="fill:#e5ad00;fill-opacity:1.0000000;stroke:none;stroke-width:1.0183219;stroke-linecap:round;stroke-linejoin:round;stroke-miterlimit:4.0000000;stroke-opacity:1.0000000"
       transform="matrix(0.899053,-0.437840,0.000000,1.000000,0.000000,0.000000)" />
    <path
       id="rect2047"
       d="M 22.623171,197.50574 L 131.59599,197.50574 L 131.59599,241.96809 L 22.623171,241.96809 L 22.623171,197.50574 z "
       style="fill:#f1bd00;fill-opacity:1.0000000;stroke:none;stroke-width:0.69866681;stroke-linecap:round;stroke-linejoin:round;stroke-miterlimit:4.0000000;stroke-opacity:1.0000000"
       transform="matrix(0.920404,0.390968,0.000000,1.000000,0.000000,0.000000)" />
    <path
       sodipodi:nodetypes="ccccc"
       style="fill:#edba00;fill-opacity:1.0000000;stroke:none;stroke-width:1.0183219;stroke-linecap:round;stroke-linejoin:round;stroke-miterlimit:4.0000000;stroke-opacity:1.0000000"
       d="M 121.09290,224.48866 L 317.93233,128.62760 L 331.05496,146.69921 L 121.09290,248.95101 L 121.09290,224.48866 z "
       id="path2777" />
    <path
       sodipodi:nodetypes="ccccc"
       style="fill:#f9c600;fill-opacity:1.0000000;stroke:none;stroke-width:0.69866681;stroke-linecap:round;stroke-linejoin:round;stroke-miterlimit:4.0000000;stroke-opacity:1.0000000"
       d="M 33.359835,187.25509 L 121.12148,224.53436 L 121.12148,248.99671 L 20.822457,206.39183 L 33.359835,187.25509 z "
       id="path2779" />
    <path
       transform="matrix(0.898726,-0.438510,0.438510,0.898726,0.000000,0.000000)"
       sodipodi:nodetypes="ccccc"
       id="rect2781"
       d="M -52.049660,183.11041 L 166.96946,183.39846 L 229.14241,255.52342 L 10.123287,255.23537 L -52.049660,183.11041 z "
       style="fill:#ffcf00;fill-opacity:1.0000000;stroke:none;stroke-width:1.0000000;stroke-linecap:round;stroke-linejoin:round;stroke-miterlimit:4.0000000;stroke-opacity:1.0000000" />
    <path
       style="fill:url(#linearGradient7969);fill-opacity:1.0000000;stroke:none;stroke-width:1.0000000;stroke-linecap:round;stroke-linejoin:round;stroke-miterlimit:4.0000000;stroke-opacity:1.0000000"
       d="M -52.049660,183.11041 L 166.96946,183.39846 L 193.85331,213.82592 C 110.89513,268.13153 68.779957,178.81514 -25.165813,213.53787 L -52.049660,183.11041 z "
       id="path7185"
       sodipodi:nodetypes="ccccc"
       transform="matrix(0.898726,-0.438510,0.438510,0.898726,0.000000,0.000000)" />
    <g
       id="g7181">
      <path
         style="font-size:63.389347px;font-style:normal;font-variant:normal;font-weight:bold;font-stretch:normal;text-align:start;line-height:125.00000%;writing-mode:lr-tb;text-anchor:start;fill:#ffffff;fill-opacity:0.53389829;stroke:none;stroke-width:3.0000000;stroke-linecap:round;stroke-linejoin:round;stroke-miterlimit:4.0000000;stroke-dasharray:none;stroke-opacity:1.0000000;font-family:Bitstream Vera Sans"
         d="M 147.55590,143.09639 C 147.52820,143.11773 147.50141,143.14026 147.47564,143.16392 C 147.40149,143.20891 147.33235,143.26168 147.26938,143.32133 C 147.20925,143.37962 147.15529,143.44394 147.10832,143.51328 C 147.08390,143.54232 147.06083,143.57249 147.03922,143.60368 C 147.01796,143.64039 146.99862,143.67820 146.98129,143.71693 C 146.96810,143.75043 146.95640,143.78449 146.94621,143.81902 C 146.93608,143.86022 146.92811,143.90193 146.92231,143.94396 C 146.91217,143.98517 146.90420,144.02687 146.89841,144.06890 C 146.88227,144.14747 146.87392,144.22743 146.87346,144.30763 C 146.88222,144.35000 146.89324,144.39188 146.90645,144.43309 C 146.91225,144.46759 146.91952,144.50182 146.92825,144.53570 C 146.93190,144.54335 146.93562,144.55097 146.93943,144.55856 C 146.95611,144.62500 146.97835,144.68989 147.00591,144.75261 C 147.02537,144.79968 147.04775,144.84548 147.07293,144.88977 L 163.52449,178.56191 C 163.82062,179.16785 164.55185,179.41907 165.15785,179.12307 L 166.98662,178.22957 L 151.42855,146.38618 C 151.40338,146.34191 151.38100,146.29610 151.36154,146.24903 C 151.33398,146.18632 151.31173,146.12142 151.29505,146.05499 C 151.29125,146.04740 151.28752,146.03977 151.28388,146.03213 C 151.27514,145.99824 151.26787,145.96402 151.26206,145.92951 C 151.24886,145.88831 151.23785,145.84642 151.22908,145.80405 C 151.22954,145.72385 151.23789,145.64389 151.25403,145.56534 C 151.25982,145.52329 151.26780,145.48159 151.27793,145.44039 C 151.28373,145.39835 151.29171,145.35665 151.30184,145.31544 C 151.31201,145.28091 151.32372,145.24685 151.33691,145.21336 C 151.35424,145.17463 151.37357,145.13682 151.39484,145.10010 C 151.41646,145.06891 151.43952,145.03875 151.46395,145.00971 C 151.51091,144.94037 151.56488,144.87604 151.62500,144.81775 C 151.68797,144.75811 151.75712,144.70534 151.83126,144.66034 C 151.85704,144.63669 151.88382,144.61416 151.91153,144.59281 C 151.95274,144.57960 151.99462,144.56858 152.03699,144.55982 L 152.12844,144.51515 L 158.82629,141.24270 L 157.93279,139.41394 C 157.63666,138.80800 156.90543,138.55678 156.29943,138.85279 L 147.77281,143.01872 L 147.68138,143.06340 C 147.63900,143.07217 147.59712,143.08317 147.55590,143.09639 z M 124.06744,154.60071 C 124.03169,154.62510 123.99727,154.65138 123.96431,154.67942 L 116.89360,160.14450 C 116.43943,160.50022 116.29608,161.12522 116.54987,161.64331 L 119.45374,167.58680 C 119.61428,167.91271 119.90228,168.15811 120.25560,168.24273 C 120.60893,168.32734 120.99090,168.24242 121.28167,168.02458 L 122.73717,166.88870 L 120.90550,163.13974 C 120.65171,162.62165 120.79504,161.99665 121.24923,161.64092 L 128.31994,156.17585 C 128.35289,156.14780 128.38732,156.12153 128.42306,156.09715 C 128.45291,156.08099 128.48342,156.06608 128.51450,156.05247 L 134.98377,152.89171 L 134.09026,151.06295 C 133.79413,150.45700 133.06291,150.20578 132.45690,150.50178 L 124.15888,154.55605 C 124.12779,154.56965 124.09729,154.58456 124.06744,154.60071 z M 168.87219,132.70997 C 168.58058,132.85159 168.35721,133.10333 168.25133,133.40975 L 164.19827,144.81936 L 167.03514,150.62569 L 172.60696,134.90617 C 172.71284,134.59976 172.93619,134.34801 173.22783,134.20639 L 180.10855,130.84461 L 180.66919,129.26813 C 180.83066,128.80041 180.68794,128.29524 180.31701,127.96775 C 179.94607,127.64025 179.42022,127.55518 178.97613,127.77339 L 168.87219,132.70997 z M 195.92788,129.26024 C 192.54630,130.91244 190.28609,133.75650 189.37813,137.47234 C 188.45991,141.18079 189.02061,145.08635 190.96708,149.07027 C 192.90657,153.03989 195.66352,155.91299 199.16195,157.49731 C 200.28752,158.00294 201.42471,158.26722 202.56687,158.43885 C 199.53167,156.78472 197.07680,154.15686 195.32271,150.56669 C 193.37624,146.58277 192.81553,142.67721 193.73375,138.96876 C 194.64172,135.25292 196.90193,132.40889 200.28350,130.75667 C 202.19333,129.82360 204.11852,129.35550 206.01937,129.39838 C 206.94029,129.41917 207.86284,129.56671 208.80322,129.82217 L 208.34530,128.88493 C 208.04928,128.27892 208.30051,127.54769 208.90646,127.25157 L 215.23856,124.15782 L 214.34506,122.32906 C 214.04892,121.72311 213.31771,121.47189 212.71170,121.76790 L 204.55084,125.75514 C 203.94488,126.05127 203.69366,126.78248 203.98968,127.38850 L 204.44759,128.32574 C 203.50721,128.07029 202.58467,127.92275 201.66374,127.90195 C 199.76289,127.85907 197.83770,128.32717 195.92788,129.26024 z M 131.56190,164.95569 L 128.92625,166.97964 L 136.67736,182.84419 L 130.18525,186.01610 C 130.14620,186.03271 130.10805,186.05135 130.07095,186.07195 C 130.00235,186.10685 129.93721,186.14816 129.87638,186.19532 C 129.70766,186.31748 129.57299,186.48075 129.48516,186.66964 C 129.47196,186.70312 129.46026,186.73719 129.45009,186.77172 C 129.43996,186.81293 129.43198,186.85463 129.42618,186.89667 C 129.40159,186.97807 129.38557,187.06181 129.37837,187.14656 C 129.38202,187.15420 129.38574,187.16183 129.38955,187.16942 C 129.39002,187.24201 129.39697,187.31442 129.41032,187.38579 C 129.41908,187.42817 129.43009,187.47005 129.44330,187.51126 C 129.48440,187.66873 129.55654,187.81640 129.65550,187.94559 L 132.48120,193.72907 C 132.77733,194.33501 133.50856,194.58623 134.11457,194.29023 L 135.94333,193.39672 L 134.01114,189.44202 C 133.91216,189.31282 133.84002,189.16515 133.79893,189.00769 C 133.78572,188.96648 133.77470,188.92460 133.76595,188.88222 C 133.75260,188.81085 133.74564,188.73844 133.74517,188.66584 C 133.74137,188.65826 133.73764,188.65064 133.73400,188.64297 C 133.74119,188.55824 133.75722,188.47449 133.78181,188.39309 C 133.78760,188.35105 133.79557,188.30935 133.80571,188.26814 C 133.81590,188.23361 133.82760,188.19956 133.84078,188.16606 C 133.92861,187.97718 134.06327,187.81390 134.23201,187.69176 C 134.29283,187.64459 134.35797,187.60328 134.42657,187.56837 C 134.46368,187.54778 134.50182,187.52915 134.54088,187.51253 L 141.03299,184.34060 L 131.56190,164.95569 z M 208.20207,137.05340 C 208.83487,137.74368 209.46449,138.59409 210.03197,139.75553 C 211.05643,141.85241 211.36275,143.55133 211.09988,144.89705 C 210.83657,146.24485 210.12906,147.12700 208.70630,147.82212 C 208.32991,148.00602 208.01454,148.00276 207.67970,148.09716 C 208.22065,148.72044 208.76579,149.19570 209.31693,149.47762 C 210.46957,150.05846 211.57733,150.04389 213.06193,149.31855 C 214.48468,148.62343 215.19220,147.74127 215.45550,146.39347 C 215.71837,145.04777 215.41206,143.34883 214.38759,141.25195 C 213.35521,139.13900 212.19786,137.84541 210.97684,137.22679 C 210.06635,136.76554 209.16696,136.79390 208.20207,137.05340 z M 177.01013,153.53910 L 176.99844,153.57313 L 198.14223,160.74222 C 198.12369,160.73487 198.11603,160.71415 198.09704,160.70766 L 177.01013,153.53910 z M 150.05021,176.31047 L 151.47982,179.23649 L 156.25746,176.90222 L 155.36396,175.07346 C 155.06784,174.46751 154.33660,174.21629 153.73060,174.51230 L 150.05021,176.31047 z M 201.58275,161.52478 C 201.50855,161.63602 201.60235,161.77427 201.56792,161.90013 L 202.45266,162.20409 C 202.91661,162.36258 203.24968,162.78092 203.28489,163.26993 C 203.32008,163.75894 203.05059,164.22383 202.61413,164.44715 L 202.38554,164.55883 L 204.58578,169.06217 C 204.81499,169.54138 205.32766,169.81749 205.85390,169.74514 C 206.70089,169.63205 207.48059,169.40398 208.29362,169.23274 L 205.85883,164.24935 C 205.66299,163.85732 205.69519,163.38579 205.93837,163.02120 C 206.18156,162.65663 206.59843,162.45489 207.03563,162.48510 C 208.76923,162.60137 210.36528,162.53051 211.80513,162.27855 C 213.25096,162.04074 214.59111,161.62528 215.85618,161.00719 C 218.35275,159.78742 219.73490,158.43572 220.25023,157.07640 C 220.66134,155.99195 220.47953,154.57099 219.89013,152.91994 C 219.52947,153.73387 219.12362,154.50345 218.61772,155.18397 C 217.48332,156.70983 215.93087,157.94084 214.02106,158.87394 C 212.70685,159.51604 211.34962,159.84302 209.98274,159.99748 C 209.15468,160.29072 208.35256,160.63359 207.44950,160.78212 C 206.00966,161.03408 204.41360,161.10493 202.68001,160.98868 C 202.24281,160.95846 201.82593,161.16019 201.58275,161.52478 z "
         id="path4246" />
      <path
         style="font-size:63.389347px;font-style:normal;font-variant:normal;font-weight:bold;font-stretch:normal;text-align:start;line-height:125.00000%;writing-mode:lr-tb;text-anchor:start;fill:#000000;fill-opacity:0.32627115;stroke:none;stroke-width:3.0000000;stroke-linecap:round;stroke-linejoin:round;stroke-miterlimit:4.0000000;stroke-dasharray:none;stroke-opacity:1.0000000;font-family:Bitstream Vera Sans"
         d="M 134.87078,152.87257 L 147.01120,177.72092 L 149.93723,176.29132 L 138.33290,152.54023 C 138.03679,151.93428 137.30554,151.68307 136.69954,151.97906 L 134.87078,152.87257 z M 158.71330,141.22356 L 162.56652,149.11011 L 164.08529,144.80022 L 162.17543,140.89122 C 161.87930,140.28528 161.14808,140.03407 160.54207,140.33007 L 158.71330,141.22356 z M 179.99556,130.82546 L 172.52982,152.05757 L 176.89713,153.51996 L 184.91181,130.74542 C 185.07328,130.27770 184.93057,129.77253 184.55964,129.44504 C 184.18869,129.11755 183.66286,129.03247 183.21875,129.25067 L 179.99556,130.82546 z M 127.09328,163.44012 L 122.62418,166.86956 L 123.69639,169.06408 C 123.85694,169.39000 124.14492,169.63540 124.49824,169.72001 C 124.85158,169.80463 125.23354,169.71971 125.52430,169.50186 L 128.81327,166.96049 L 127.09328,163.44012 z M 215.12557,124.13868 L 225.36731,145.10091 C 227.47163,149.40803 227.75280,153.61067 226.06265,157.36197 C 224.39642,161.12360 220.93646,164.19895 215.88450,166.66723 C 214.24385,167.46882 212.58062,168.11167 210.91698,168.61290 C 210.03729,168.87792 209.09430,169.02115 208.18062,169.21360 L 208.82841,170.53945 C 209.05760,171.01866 209.57028,171.29476 210.09654,171.22242 C 211.89535,170.98225 213.61015,170.61017 215.27260,170.10932 C 216.93622,169.60809 218.59947,168.96524 220.24012,168.16366 C 225.29207,165.69537 228.75204,162.62004 230.41829,158.85840 C 232.10842,155.10710 231.82725,150.90444 229.72293,146.59733 L 218.58769,123.80634 C 218.29156,123.20040 217.56034,122.94918 216.95433,123.24518 L 215.12557,124.13868 z M 202.66114,135.83522 C 201.30889,136.51580 200.64080,137.37896 200.38185,138.70444 C 200.11942,140.04786 200.42860,141.75588 201.46093,143.86882 C 202.52701,146.05086 203.68755,147.36831 204.84830,147.96205 C 205.70580,148.39417 206.59644,148.37532 207.57789,148.10089 C 206.97341,147.40899 206.38196,146.52251 205.81656,145.36525 C 204.78420,143.25232 204.47504,141.54429 204.73748,140.20087 C 204.99641,138.87540 205.66451,138.01222 207.01676,137.33164 C 207.03995,137.32120 207.06284,137.31001 207.08533,137.29813 C 207.45489,137.11758 207.77501,137.11276 208.11193,137.02309 C 207.59326,136.45715 207.05834,135.98995 206.50822,135.71122 C 205.28319,135.09062 204.15250,135.10659 202.72971,135.80171 C 202.70721,135.81359 202.68435,135.82476 202.66114,135.83522 z M 169.12257,162.52868 L 174.33838,173.20410 C 174.63439,173.81011 174.38317,174.54133 173.77722,174.83746 L 166.87363,178.21042 L 167.76713,180.03919 C 168.06326,180.64514 168.79448,180.89635 169.40049,180.60035 L 178.13284,176.33389 C 178.73879,176.03777 178.99001,175.30653 178.69400,174.70053 L 173.47820,164.02510 L 190.64067,169.82637 C 190.94748,169.93116 191.28333,169.90968 191.57427,169.76667 L 202.27254,164.53969 L 201.39021,162.73378 C 201.25412,162.46137 201.37652,162.16763 201.45493,161.88099 L 198.02924,160.72308 C 198.46505,160.89458 198.78244,161.28442 198.81628,161.75436 C 198.85147,162.24338 198.58198,162.70827 198.14552,162.93157 L 187.21864,168.27025 C 186.92770,168.41325 186.59184,168.43473 186.28505,168.32995 L 169.12257,162.52868 z M 156.14447,176.88308 L 158.19953,181.08924 C 158.49554,181.69524 158.24431,182.42647 157.63836,182.72260 L 135.83034,193.37758 L 136.72383,195.20635 C 137.01997,195.81229 137.75119,196.06351 138.35719,195.76751 L 161.99399,184.21902 C 162.59995,183.92289 162.85116,183.19166 162.55515,182.58566 L 159.60660,176.55074 C 159.31048,175.94479 158.57925,175.69358 157.97324,175.98958 L 156.14447,176.88308 z M 215.42151,151.40437 C 215.06086,152.21831 214.65500,152.98789 214.14910,153.66840 C 213.01470,155.19427 211.46226,156.42528 209.55244,157.35838 C 207.26981,158.47362 204.87801,158.78533 202.48789,158.43140 C 202.80101,158.60129 203.07852,158.82694 203.40457,158.97460 C 205.51026,159.92051 207.66659,160.21351 209.79001,159.98899 C 210.31373,159.80683 210.88903,159.73520 211.38757,159.49162 C 213.88412,158.27185 215.26629,156.92015 215.78161,155.56084 C 216.19273,154.47639 216.01091,153.05543 215.42151,151.40437 z "
         id="path4978" />
    </g>
    <path
       id="path5708"
       d="M 230.33456,88.533579 C 229.96461,88.573659 229.60480,88.679489 229.27206,88.846079 L 33.209567,184.18983 C 32.265217,184.28319 31.414427,184.80056 30.897067,185.59608 L 18.365817,204.72108 C 18.058307,205.19088 17.955727,205.73551 17.928317,206.28358 C 17.926237,206.33296 17.865567,206.35868 17.865817,206.40858 L 17.865817,250.87733 C 17.866917,252.13131 18.617417,253.26320 19.772067,253.75233 L 120.05331,296.34608 C 120.31488,296.45682 120.59101,296.43472 120.86581,296.47108 C 120.97353,296.48452 121.06983,296.50015 121.17831,296.50233 C 121.61653,296.51557 122.01939,296.42087 122.42831,296.25233 C 122.48845,296.22741 122.55688,296.24994 122.61581,296.22108 L 122.80331,296.12733 C 122.86188,296.09381 122.93409,296.10237 122.99081,296.06483 C 123.01004,296.05210 123.00317,296.01544 123.02206,296.00233 L 332.58456,193.97108 C 333.65760,193.44523 334.33688,192.35354 334.33456,191.15858 L 334.33456,146.72108 C 334.33546,146.61375 334.28204,146.51438 334.27206,146.40858 C 334.25093,146.22306 334.20091,146.05619 334.14706,145.87733 C 334.06974,145.59558 333.95532,145.34533 333.80331,145.09608 C 333.76745,145.03981 333.78048,144.96280 333.74081,144.90858 L 320.61581,126.84608 C 319.99402,125.99232 318.98309,125.51036 317.92831,125.56483 C 317.84173,125.57000 317.76389,125.61503 317.67831,125.62733 L 231.86581,88.783579 C 231.38452,88.572859 230.85788,88.486879 230.33456,88.533579 z M 230.70956,95.096079 L 310.02206,129.15858 L 121.08456,221.12733 L 41.272067,187.22108 L 230.70956,95.096079 z M 317.39706,133.06483 L 326.49081,145.53358 L 124.39706,243.97108 L 124.39706,226.90858 L 317.39706,133.06483 z M 328.08456,151.75233 L 328.08456,189.18983 L 124.39706,288.43983 L 124.39706,250.93983 L 328.08456,151.75233 z M 34.678317,191.25233 L 118.11581,227.09608 L 118.11581,244.28358 L 25.678317,205.00233 L 34.678317,191.25233 z M 24.115817,211.15858 L 118.11581,251.09608 L 118.11581,288.75233 L 24.115817,248.78358 L 24.115817,211.15858 z "
       style="fill:#a98400;fill-opacity:1.0000000;stroke:none;stroke-width:6.2500000;stroke-linecap:round;stroke-linejoin:round;stroke-miterlimit:4.0000000;stroke-dasharray:none;stroke-opacity:1.0000000" />
  </g>
</svg>
