<?xml version="1.0" encoding="UTF-8" standalone="no"?>
<!DOCTYPE svg PUBLIC "-//W3C//DTD SVG 1.0//EN"
"http://www.w3.org/TR/2001/REC-SVG-20010904/DTD/svg10.dtd">
<!-- Created with Inkscape (http://www.inkscape.org/) -->
<!-- (C) Copyright 2004 Theo van Klaveren -->
<!--
Redistribution and use in source and binary forms, with or without
modification, are permitted provided that the following conditions are
met:

1. Redistributions of source code must retain the above copyright
   notice, this list of conditions and the following disclaimer.
2. Redistributions in binary form must reproduce the above copyright
   notice, this list of conditions and the following disclaimer in the
   documentation and/or other materials provided with the distribution.

THIS SOFTWARE IS PROVIDED BY THEO VAN KLAVEREN ``AS IS'' AND ANY
EXPRESS OR IMPLIED WARRANTIES, INCLUDING, BUT NOT LIMITED TO, THE
IMPLIED WARRANTIES OF MERCHANTABILITY AND FITNESS FOR A PARTICULAR
PURPOSE ARE DISCLAIMED. IN NO EVENT SHALL THEO VAN KLAVEREN OR
CONTRIBUTORS BE LIABLE FOR ANY DIRECT, INDIRECT, INCIDENTAL, SPECIAL,
EXEMPLARY, OR CONSEQUENTIAL DAMAGES (INCLUDING, BUT NOT LIMITED TO,
PROCUREMENT OF SUBSTITUTE GOODS OR SERVICES; LOSS OF USE, DATA, OR
PROFITS; OR BUSINESS INTERRUPTION) HOWEVER CAUSED AND ON ANY THEORY OF
LIABILITY, WHETHER IN CONTRACT, STRICT LIABILITY, OR TORT (INCLUDING
NEGLIGENCE OR OTHERWISE) ARISING IN ANY WAY OUT OF THE USE OF THIS
SOFTWARE, EVEN IF ADVISED OF THE POSSIBILITY OF SUCH DAMAGE.
-->
<svg
   xmlns:dc="http://purl.org/dc/elements/1.1/"
   xmlns:cc="http://web.resource.org/cc/"
   xmlns:rdf="http://www.w3.org/1999/02/22-rdf-syntax-ns#"
   xmlns:svg="http://www.w3.org/2000/svg"
   xmlns="http://www.w3.org/2000/svg"
   xmlns:sodipodi="http://inkscape.sourceforge.net/DTD/sodipodi-0.dtd"
   xmlns:inkscape="http://www.inkscape.org/namespaces/inkscape"
   id="svg831"
   sodipodi:version="0.32"
   inkscape:version="0.42"
   width="100.00000mm"
   height="100.00000mm"
   sodipodi:docbase="/home/aurium/Desktop/gnibbles"
   sodipodi:docname="bonus4.svg">
  <metadata
     id="metadata8">
    <rdf:RDF>
      <cc:Work
         rdf:about="">
        <dc:format>image/svg+xml</dc:format>
        <dc:type
           rdf:resource="http://purl.org/dc/dcmitype/StillImage" />
      </cc:Work>
    </rdf:RDF>
  </metadata>
  <defs
     id="defs833" />
  <sodipodi:namedview
     id="base"
     pagecolor="#ffffff"
     bordercolor="#666666"
     borderopacity="1.0"
     inkscape:pageopacity="0.0"
     inkscape:pageshadow="2"
     inkscape:zoom="1.4082888"
     inkscape:cx="292.09068"
     inkscape:cy="177.16536"
     inkscape:window-width="1018"
     inkscape:window-height="679"
     showgrid="false"
     snaptogrid="true"
     inkscape:window-x="6"
     inkscape:window-y="33"
     inkscape:current-layer="svg831" />
  <path
     style="fill:#000000;fill-opacity:0.36016950;stroke:none;stroke-width:8.0000000;stroke-linecap:round;stroke-linejoin:round;stroke-miterlimit:4.0000000;stroke-opacity:0.75847459"
     d="M 325.21737,290.06832 C 322.67487,319.06809 306.63595,342.96940 226.87107,342.96940 C 147.10618,342.96940 24.528890,344.21503 47.575471,326.28248 C 75.978735,304.18190 192.16976,242.41607 270.18605,225.80594 C 343.56020,210.18414 328.35552,254.27457 325.21737,290.06832 z "
     id="path3519"
     sodipodi:nodetypes="cssss" />
  <path
     style="fill:#000000;fill-opacity:0.27118644;stroke:none;stroke-width:8.0000000;stroke-linecap:round;stroke-linejoin:round;stroke-miterlimit:4.0000000;stroke-opacity:0.75847459"
     d="M 291.21875,228.87500 C 243.45632,234.76872 198.82337,254.36634 155.32567,273.93950 C 120.02785,290.05452 73.180929,313.95974 54.638913,328.23609 C 43.214756,337.03207 126.81805,335.66153 163.65612,336.82635 C 201.66534,336.52295 240.15747,339.16155 277.71090,332.04170 C 295.37711,328.44865 314.33975,317.40399 317.42852,298.13432 C 320.93885,282.11695 322.07341,265.59100 322.43750,249.18750 C 322.02364,239.90359 316.02405,230.68437 306.16380,229.75826 C 301.29719,228.43915 296.20164,228.94900 291.21875,228.87500 z "
     id="path4248"
     sodipodi:nodetypes="ccscccccc" />
  <path
     style="fill:#8d7757;fill-opacity:1.0000000;stroke:none;stroke-width:8.0000000;stroke-linecap:round;stroke-linejoin:round;stroke-miterlimit:4.0000000;stroke-opacity:0.75847459"
     d="M 291.84354,199.88797 C 291.84354,236.83068 313.39026,290.88564 290.83416,315.11256 C 268.27806,339.33948 215.82078,333.02828 181.42584,333.02828 C 147.03091,333.02828 96.703886,338.62940 74.147788,314.40248 C 51.591691,290.17556 56.806530,236.12060 56.806530,199.17789 C 56.806530,162.23518 70.763894,128.77258 93.319992,104.54566 C 104.59803,92.432198 118.02576,82.627660 132.93335,75.851484 C 121.21494,66.782744 100.45791,23.677096 106.26014,15.502387 C 112.06236,7.3276776 143.00368,29.113336 184.26617,30.533500 C 192.85963,30.834447 255.40485,22.949473 265.82261,31.124182 C 276.24037,39.298891 231.69561,66.072662 229.91834,75.851484 C 244.82593,82.627660 258.25366,92.432198 269.53171,104.54566 C 292.08781,128.77258 291.84354,162.94526 291.84354,199.88797 z "
     id="path1306"
     sodipodi:nodetypes="cssssscssscsc" />
  <path
     sodipodi:nodetypes="cssscsscscscsc"
     id="path2038"
     d="M 291.84354,199.88797 C 291.84354,236.83068 313.39026,290.88564 290.83416,315.11256 C 268.27806,339.33948 215.82078,333.02828 181.42584,333.02828 C 147.03091,333.02828 96.703886,338.62940 74.147788,314.40248 C 62.869740,302.28902 58.534425,282.71855 57.018623,261.55861 C 70.414534,278.74307 90.935059,289.36905 109.35257,290.77841 C 155.50787,294.31035 204.96932,282.15020 227.52542,257.92328 C 238.80346,245.80982 228.79849,221.80365 221.69355,193.01494 C 262.52118,206.66882 258.99313,153.44306 248.27646,134.79610 C 226.60698,97.091283 155.78515,90.180354 144.50160,78.108967 C 218.42257,86.220812 255.40485,22.949473 265.82261,31.124182 C 276.24037,39.298891 231.69561,66.072662 229.91834,75.851484 C 244.82593,82.627660 258.25366,92.432198 269.53171,104.54566 C 292.08781,128.77258 291.84354,162.94526 291.84354,199.88797 z "
     style="fill:#000000;fill-opacity:0.18644068;stroke:none;stroke-width:8.0000000;stroke-linecap:round;stroke-linejoin:round;stroke-miterlimit:4.0000000;stroke-opacity:0.75847459" />
  <path
     sodipodi:nodetypes="cscscsscsscscss"
     id="path2040"
     d="M 111.48281,129.58989 C 107.10284,142.47793 104.88541,153.21326 115.44400,167.41559 C 125.21078,180.55287 127.77067,197.40270 121.77898,210.89425 C 113.65708,200.95310 109.48535,198.74332 100.42081,199.36926 C 83.909287,200.50943 82.677199,232.30275 64.119439,258.00820 C 62.603636,236.84825 62.487183,217.64925 62.487183,199.17789 C 62.487183,162.23518 73.604220,134.45323 96.160318,110.22631 C 107.43836,98.112851 124.41649,84.047823 139.32408,77.271647 C 127.60567,68.202907 108.26881,30.067830 114.07104,21.893121 C 119.87326,13.718412 143.00368,32.663744 184.26617,34.083908 C 192.85963,34.384855 238.36289,27.209963 250.91090,31.834264 C 213.51488,31.661128 204.98313,40.043208 184.27578,40.016062 C 163.56842,39.988916 139.91653,37.233197 141.86822,46.738138 C 117.01124,22.980805 124.75832,56.928118 136.03637,69.041580 C 158.59247,93.268500 122.67000,96.671641 111.48281,129.58989 z "
     style="fill:#ffffff;fill-opacity:0.22033899;stroke:none;stroke-width:8.0000000;stroke-linecap:round;stroke-linejoin:round;stroke-miterlimit:4.0000000;stroke-opacity:0.75847459" />
  <path
     style="fill:#000000;fill-opacity:0.16101696;stroke:none;stroke-width:8.0000000;stroke-linecap:round;stroke-linejoin:round;stroke-miterlimit:4.0000000;stroke-opacity:0.75847459"
     d="M 291.84354,199.88797 C 291.84354,236.83068 313.39026,290.88564 290.83416,315.11256 C 268.27806,339.33948 215.82078,333.02828 181.42584,333.02828 C 147.03091,333.02828 96.703886,338.62940 74.147788,314.40248 C 62.869740,302.28902 58.534425,282.71855 57.018623,261.55861 C 64.023800,281.58340 73.893101,303.57068 92.310612,304.98004 C 138.46591,308.51198 249.70446,320.49461 272.26056,296.26769 C 283.53860,284.15423 273.53363,232.45487 259.32787,203.66616 C 280.98330,197.43776 275.32501,138.53135 264.60834,119.88439 C 242.93886,82.179569 191.28923,90.180354 171.48470,81.659375 C 221.26290,82.670404 247.59395,51.352737 265.82261,31.124182 C 276.24037,39.298891 231.69561,66.072662 229.91834,75.851484 C 244.82593,82.627660 258.25366,92.432198 269.53171,104.54566 C 292.08781,128.77258 291.84354,162.94526 291.84354,199.88797 z "
     id="path2768"
     sodipodi:nodetypes="cssscsscscccsc" />
  <path
     style="font-size:157.51860px;font-style:normal;font-variant:normal;font-weight:bold;font-stretch:normal;text-align:start;line-height:125.00000%;writing-mode:lr-tb;text-anchor:start;fill:#000000;fill-opacity:0.60593218;stroke:none;stroke-width:1.0000000px;stroke-linecap:butt;stroke-linejoin:miter;stroke-opacity:1.0000000;font-family:Serif"
     d="M 170.17602,111.39735 L 166.54306,138.03419 C 156.38708,137.72166 147.80119,139.66117 140.83426,143.80062 C 131.53052,149.32030 126.02404,158.29447 124.32746,170.73383 C 122.92124,181.04409 124.36612,189.41646 128.66565,195.85075 C 132.97274,202.22914 141.14267,207.99256 153.17492,213.17522 L 156.12386,214.42728 L 150.46481,255.91929 C 145.77628,253.97463 141.81506,251.50937 138.76629,248.37828 C 133.25582,242.71909 130.32519,235.04046 129.95915,225.35601 L 119.14048,223.58057 L 115.08365,253.32504 C 123.17134,257.57398 131.21156,261.06853 139.21353,263.81390 C 142.44784,264.92356 145.70888,265.82676 148.99299,266.71062 L 145.62084,291.43507 L 154.28966,292.85770 L 157.58264,268.71379 C 159.61193,269.13386 161.63503,269.65814 163.68289,269.99420 C 165.51787,270.29534 167.13641,270.35758 168.88677,270.56889 L 165.59380,294.71280 L 174.26260,296.13542 L 177.64406,271.34267 C 188.34180,271.71758 197.23801,270.20309 204.17267,266.58363 C 213.95007,261.42824 219.70569,252.50750 221.43298,239.84391 C 222.90785,229.02945 221.40504,220.09508 216.89761,213.05366 C 212.44687,206.02167 204.49382,200.10130 193.05700,195.24538 L 188.29613,193.24209 L 193.62450,154.17473 C 196.90517,155.73182 199.77530,157.53828 202.01180,159.74085 C 207.04487,164.63437 209.77696,171.53540 210.25013,180.43527 L 221.10348,182.21639 L 224.88550,154.48676 C 216.57349,150.60215 208.44612,147.39329 200.53516,144.83458 C 198.70420,144.24032 196.91947,143.80313 195.11030,143.28094 L 198.81778,116.09770 L 190.14898,114.67508 L 186.55792,141.00457 C 183.54094,140.31147 180.54758,139.63423 177.59360,139.14939 C 176.78548,139.01679 176.07804,139.02008 175.28639,138.91042 L 178.84485,112.81998 L 170.17602,111.39735 z M 179.01431,149.78696 C 181.20853,150.14707 183.22440,150.60483 185.17925,151.11291 L 179.91610,189.70218 L 174.58439,187.46554 C 172.29745,186.47940 170.95811,185.69104 169.03115,184.77359 L 173.88443,149.18950 C 175.52333,149.32085 177.20453,149.48998 179.01431,149.78696 z M 164.98740,149.44022 L 160.73029,180.65314 C 157.50275,178.74771 155.20079,177.01843 153.95410,175.49106 C 151.36994,172.25998 150.43039,168.05562 151.14119,162.84440 C 151.92066,157.12908 154.65505,153.18021 159.31204,151.02267 C 160.95779,150.25442 162.89221,149.77280 164.98740,149.44022 z M 164.50856,217.93304 L 171.64754,220.95506 C 173.16436,221.59907 174.05861,222.16732 175.40283,222.79333 L 170.29338,260.25566 C 168.11636,260.16408 165.80962,259.93880 163.33710,259.53304 C 161.78321,259.27804 160.41031,258.90555 158.96595,258.57130 L 164.50856,217.93304 z M 183.69903,226.94794 C 186.54071,228.69058 188.65728,230.33922 189.96906,231.92220 C 192.71613,235.23744 193.76573,239.43478 193.07800,244.47779 C 192.20669,250.86563 189.21816,255.33783 184.15878,257.88750 C 182.69627,258.62450 181.03223,259.12380 179.25562,259.52684 L 183.69903,226.94794 z "
     id="text2774" />
  <path
     style="fill:#3a2d00;fill-opacity:1.0000000;fill-rule:nonzero;stroke:none;stroke-width:1.0000000px;stroke-linecap:butt;stroke-linejoin:miter;stroke-opacity:1.0000000"
     id="path2787"
     d="M 127.83507,72.349433 C 129.70021,70.733083 133.59867,72.886708 136.74228,74.528086 C 140.14660,76.305585 156.01053,78.168460 160.34187,78.172807 C 165.03586,78.177518 169.72993,78.178350 174.42403,78.171172 C 179.29025,78.163730 184.16149,78.026299 189.02211,78.166993 C 193.67620,78.301709 198.29626,78.845255 202.97052,78.922174 C 207.84118,79.002325 212.72050,78.434036 217.48530,77.495866 C 221.01503,76.800876 224.47785,75.969495 227.99671,75.270271 C 232.60853,74.353870 237.30811,74.115574 242.01452,73.907866 C 246.28007,73.719615 250.04194,75.838613 254.09667,76.602663 C 258.94787,77.516794 263.88908,77.548682 268.82248,77.540318 C 276.09776,77.527984 278.26160,73.955679 280.23128,67.512494 C 281.71976,62.643378 281.47309,59.017132 282.26000,54.083429 C 283.68119,45.172978 291.07955,42.655108 298.82399,42.674163 C 307.58471,42.695719 312.32875,47.092195 313.61539,55.159953 C 314.63474,61.551713 307.19952,61.618193 305.71158,58.117815 C 304.09951,54.325428 303.42558,52.681314 298.93559,52.430877 C 296.52318,52.296320 292.75682,51.843641 291.83784,55.011425 C 290.32021,60.242826 291.29596,64.961019 289.43826,70.458742 C 285.98808,80.669304 280.21728,87.204038 268.80265,87.207500 C 263.35976,87.209151 257.92395,87.318951 252.56392,86.357334 C 249.03304,85.723877 245.75366,83.795469 242.14979,83.741100 C 238.24633,83.682212 234.35239,84.035434 230.53406,84.814582 C 226.89697,85.556748 223.29622,86.380328 219.65978,87.098587 C 214.16731,88.183443 208.54334,88.717930 202.93905,88.662995 C 198.27510,88.617277 193.66450,88.223197 189.02211,87.992102 C 184.16592,87.750364 179.29020,87.995395 174.42396,87.987889 C 169.73286,87.980653 165.04184,87.978134 160.35082,87.990603 C 155.46458,88.003590 136.89080,85.688886 132.81116,83.579697 C 130.91244,82.598054 126.19994,80.090942 126.02759,79.446647 C 125.36076,76.953829 126.10387,73.849709 127.83507,72.349433 z "
     sodipodi:nodetypes="cssssssssssssssssssssssssssssss" />
  <path
     style="fill:#3a2d00;fill-opacity:1.0000000;fill-rule:nonzero;stroke:none;stroke-width:1.0000000px;stroke-linecap:butt;stroke-linejoin:miter;stroke-opacity:1.0000000"
     id="path2791"
     d="M 225.20119,77.685238 C 224.54504,76.649856 232.70825,71.272655 234.06567,70.180924 C 237.47922,67.435501 241.28655,65.118442 245.11628,62.990210 C 251.07675,59.677898 256.80646,59.756787 261.29972,64.786318 C 265.53605,69.528247 264.17383,76.356729 266.88089,82.006697 C 271.51229,91.673018 271.91273,104.55536 280.74746,111.38073 C 282.37398,112.63731 283.78137,111.02106 285.06570,109.71796 C 287.10885,107.64495 289.89206,107.44170 293.29044,109.64029 C 294.82969,110.63610 294.64250,113.95978 292.37427,116.30967 C 287.51840,121.34036 280.57970,123.75757 274.85247,119.17765 C 264.79016,111.13109 263.90583,97.730817 258.36144,86.716852 C 255.85135,81.730545 255.34442,75.968768 253.79518,71.197648 C 253.72869,70.992882 252.22045,69.848475 249.66177,71.712548 C 246.59245,73.948632 242.93810,75.447668 240.04675,77.964243 C 236.73165,80.849635 233.28667,84.147697 228.81615,84.536132 C 225.13495,84.855984 226.02067,78.978343 225.20119,77.685238 z "
     sodipodi:nodetypes="csssssssssssssss" />
</svg>
